<?xml version="1.0" encoding="UTF-8" standalone="no"?>
<!-- Generator: Adobe Illustrator 22.0.1, SVG Export Plug-In . SVG Version: 6.00 Build 0)  -->

<svg
   fill="#000000"
   width="86.322945"
   height="57.018749"
   version="1.1"
   id="lni_lni-codepen"
   x="0px"
   y="0px"
   viewBox="0 0 106.24363 70.176921"
   xml:space="preserve"
   sodipodi:docname="logo-2.svg"
   inkscape:version="1.1 (c68e22c387, 2021-05-23)"
   xmlns:inkscape="http://www.inkscape.org/namespaces/inkscape"
   xmlns:sodipodi="http://sodipodi.sourceforge.net/DTD/sodipodi-0.dtd"
   xmlns="http://www.w3.org/2000/svg"
   xmlns:svg="http://www.w3.org/2000/svg"><defs
   id="defs7" /><sodipodi:namedview
   id="namedview5"
   pagecolor="#ffffff"
   bordercolor="#666666"
   borderopacity="1.0"
   inkscape:pageshadow="2"
   inkscape:pageopacity="0.0"
   inkscape:pagecheckerboard="0"
   showgrid="false"
   inkscape:zoom="8"
   inkscape:cx="28.0625"
   inkscape:cy="32.9375"
   inkscape:window-width="1920"
   inkscape:window-height="1017"
   inkscape:window-x="1912"
   inkscape:window-y="-8"
   inkscape:window-maximized="1"
   inkscape:current-layer="lni_lni-codepen" />
<path
   d="M 70.003994,21.979729 37.297211,0.5085285 c -1.147607,-0.678038 -2.295213,-0.678038 -3.44282,0 L 1.262367,21.979729 C 0.459042,22.431754 0,23.561817 0,24.352862 v 21.358193 c 0,0.904051 0.459042,1.921109 1.262367,2.599147 l 32.592024,21.358194 c 1.147607,0.678037 2.295213,0.678037 3.44282,0 L 69.889233,48.310201 c 0.803325,-0.452025 1.262368,-1.582089 1.262368,-2.599146 V 24.352861 c 0.11476,-0.90405 -0.344282,-1.921107 -1.147607,-2.373132 z M 38.674338,8.6449835 62.659314,24.465868 51.757052,31.472259 38.559578,22.657767 c 0.11476,0 0.11476,-14.0127835 0.11476,-14.0127835 z m -6.082314,0 V 22.657767 L 19.279789,31.472259 8.607048,24.465868 Z M 6.197075,30.003177 13.771278,35.088461 6.197075,40.173746 Z M 32.592024,61.531941 8.607048,45.711055 l 10.672741,-7.00639 13.312235,8.814491 c 0,0 0,14.012785 0,14.012785 z M 35.690561,42.320867 24.7883,35.088462 35.690561,27.856058 46.592823,35.088462 Z m 2.983777,19.211074 V 47.519156 l 13.312235,-8.814492 10.672741,7.006391 z m 26.394949,-21.358194 -7.574202,-5.085285 7.574202,-5.085284 z"
   id="path2"
   style="fill:#1759af;stroke-width:1.1388;fill-opacity:1" />
<text
   xml:space="preserve"
   style="font-style:normal;font-variant:normal;font-weight:bold;font-stretch:normal;font-size:29.5385px;line-height:1.25;font-family:'Blackadder ITC';-inkscape-font-specification:'Blackadder ITC Bold';font-variant-ligatures:none;stroke-width:1.23077"
   x="65.07692"
   y="31.357691"
   id="text3950"><tspan
     sodipodi:role="line"
     id="tspan3948"
     style="font-style:normal;font-variant:normal;font-weight:bold;font-stretch:normal;font-family:'Blackadder ITC';-inkscape-font-specification:'Blackadder ITC Bold';stroke-width:1.23077"
     x="65.07692"
     y="31.357691" /></text><text
   xml:space="preserve"
   style="font-weight:bold;font-size:36.1026px;line-height:1.25;font-family:Montserrat;-inkscape-font-specification:'Montserrat Bold';font-variant-ligatures:none;fill:#1759af;stroke-width:1.23077;fill-opacity:1"
   x="77.615395"
   y="48.588459"
   id="text9488"><tspan
     sodipodi:role="line"
     id="tspan9486"
     style="font-style:normal;font-variant:normal;font-weight:bold;font-stretch:normal;font-size:36.1026px;font-family:sans-serif;-inkscape-font-specification:'sans-serif Bold';fill:#1759af;stroke-width:1.23077;fill-opacity:1"
     x="77.615395"
     y="48.588459">R</tspan></text></svg>
