<?xml version="1.0" encoding="UTF-8" standalone="no"?>
<!-- Created with Inkscape (http://www.inkscape.org/) -->

<svg
   version="1.1"
   id="svg1092"
   width="1365.3333"
   height="1365.3333"
   viewBox="0 0 1365.3333 1365.3333"
   sodipodi:docname="photo.svg"
   inkscape:version="1.1 (c68e22c387, 2021-05-23)"
   xmlns:inkscape="http://www.inkscape.org/namespaces/inkscape"
   xmlns:sodipodi="http://sodipodi.sourceforge.net/DTD/sodipodi-0.dtd"
   xmlns="http://www.w3.org/2000/svg"
   xmlns:svg="http://www.w3.org/2000/svg">
  <defs
     id="defs1096">
    <inkscape:path-effect
       effect="bspline"
       id="path-effect1726"
       is_visible="true"
       lpeversion="1"
       weight="33.333333"
       steps="2"
       helper_size="0"
       apply_no_weight="true"
       apply_with_weight="true"
       only_selected="false" />
    <inkscape:path-effect
       effect="bspline"
       id="path-effect1722"
       is_visible="true"
       lpeversion="1"
       weight="33.333333"
       steps="2"
       helper_size="0"
       apply_no_weight="true"
       apply_with_weight="true"
       only_selected="false" />
    <inkscape:path-effect
       effect="bspline"
       id="path-effect1718"
       is_visible="true"
       lpeversion="1"
       weight="33.333333"
       steps="2"
       helper_size="0"
       apply_no_weight="true"
       apply_with_weight="true"
       only_selected="false" />
    <inkscape:path-effect
       effect="bspline"
       id="path-effect1714"
       is_visible="true"
       lpeversion="1"
       weight="33.333333"
       steps="2"
       helper_size="0"
       apply_no_weight="true"
       apply_with_weight="true"
       only_selected="false" />
    <inkscape:path-effect
       effect="bspline"
       id="path-effect1710"
       is_visible="true"
       lpeversion="1"
       weight="33.333333"
       steps="2"
       helper_size="0"
       apply_no_weight="true"
       apply_with_weight="true"
       only_selected="false" />
    <inkscape:path-effect
       effect="bspline"
       id="path-effect1513"
       is_visible="true"
       lpeversion="1"
       weight="33.333333"
       steps="2"
       helper_size="0"
       apply_no_weight="true"
       apply_with_weight="true"
       only_selected="false" />
    <inkscape:path-effect
       effect="bspline"
       id="path-effect1509"
       is_visible="true"
       lpeversion="1"
       weight="33.333333"
       steps="2"
       helper_size="0"
       apply_no_weight="true"
       apply_with_weight="true"
       only_selected="false" />
    <inkscape:path-effect
       effect="bspline"
       id="path-effect1505"
       is_visible="true"
       lpeversion="1"
       weight="33.333333"
       steps="2"
       helper_size="0"
       apply_no_weight="true"
       apply_with_weight="true"
       only_selected="false" />
    <inkscape:path-effect
       effect="bspline"
       id="path-effect1501"
       is_visible="true"
       lpeversion="1"
       weight="33.333333"
       steps="2"
       helper_size="0"
       apply_no_weight="true"
       apply_with_weight="true"
       only_selected="false" />
    <inkscape:path-effect
       effect="bspline"
       id="path-effect1304"
       is_visible="true"
       lpeversion="1"
       weight="33.333333"
       steps="2"
       helper_size="0"
       apply_no_weight="true"
       apply_with_weight="true"
       only_selected="false" />
  </defs>
  <sodipodi:namedview
     id="namedview1094"
     pagecolor="#ffffff"
     bordercolor="#666666"
     borderopacity="1.0"
     inkscape:pageshadow="2"
     inkscape:pageopacity="0.0"
     inkscape:pagecheckerboard="0"
     showgrid="false"
     inkscape:zoom="0.44435863"
     inkscape:cx="660.50253"
     inkscape:cy="511.97385"
     inkscape:window-width="1920"
     inkscape:window-height="1017"
     inkscape:window-x="1912"
     inkscape:window-y="-8"
     inkscape:window-maximized="1"
     inkscape:current-layer="g1098" />
  <g
     inkscape:groupmode="layer"
     inkscape:label="Image"
     id="g1098"
     style="display:inline">
    <path
       style="fill:none;stroke:#143454;stroke-width:1px;stroke-linecap:butt;stroke-linejoin:miter;stroke-opacity:1;paint-order:markers stroke fill"
       d="m -1097.4733,345.3478 c 1.2184,-1.1721 3,-3.61007 5.2974,-6.18882 2.2974,-2.57875 5.1104,-5.29793 9.1894,-8.86122 4.079,-3.56329 9.4236,-7.97027 15.003,-11.95551 5.5794,-3.98525 11.3929,-7.54836 17.3941,-11.06469 6.0012,-3.51634 12.1898,-6.9857 19.879,-10.78335 7.6891,-3.79765 16.8782,-7.92337 27.5679,-11.95544 10.6898,-4.03207 22.87941,-7.97025 31.92815,-10.64264 9.04873,-2.67239 14.956,-4.07888 21.94184,-5.53229 6.98585,-1.45341 15.04975,-2.95367 21.80114,-4.03199 6.75139,-1.07831 12.18983,-1.73468 17.11269,-2.34418 4.92287,-0.6095 9.32988,-1.1721 14.44035,-1.54714 5.11048,-0.37503 10.92399,-0.56256 16.78456,-0.70321 5.86057,-0.14064 11.76784,-0.23441 17.39402,-0.0937 5.62618,0.14071 10.97086,0.51577 15.14358,0.84398 4.17272,0.3282 7.17324,0.6095 10.03321,0.89081 2.85996,0.28131 5.57918,0.56261 8.6736,1.12531 3.09442,0.56271 6.56377,1.4066 8.72041,1.87536 2.15664,0.46876 3.00054,0.56253 1.92208,-1.17174 -1.07846,-1.73426 -4.07898,-5.29738 -8.25165,-9.47018 -4.17266,-4.1728 -9.51733,-8.95487 -15.47165,-13.92467 -5.95432,-4.9698 -12.51795,-10.12695 -20.5352,-15.94067 -8.01724,-5.81373 -17.48763,-12.2836 -24.94223,-17.11273 -7.45461,-4.82914 -12.89305,-8.01719 -17.8628,-10.83028 -4.96975,-2.81309 -9.47053,-5.25101 -8.67367,-7.17368 0.79686,-1.92267 6.89167,-3.32917 13.64303,-4.97013 6.75136,-1.64097 14.15889,-3.51629 24.14539,-5.34475 9.9865,-1.82847 22.55118,-3.61003 35.06941,-4.7821 12.51822,-1.17206 24.98913,-1.73466 36.66341,-1.82839 11.67427,-0.0937 22.55116,0.28134 33.19399,1.2191 10.64282,0.93776 21.05088,2.43802 32.3032,4.64166 11.25231,2.20364 23.34816,5.11039 33.99095,8.11106 10.64278,3.00067 19.83187,6.09496 29.53697,9.47066 9.7051,3.3757 19.92562,7.03258 29.81825,10.92405 9.89264,3.89146 19.45679,8.01718 26.72387,11.01774 7.26708,3.00057 12.23668,4.87589 14.72094,5.15746 2.48425,0.28156 2.48425,-1.03117 -0.37527,-5.01635 -2.85953,-3.98517 -8.57927,-10.64258 -15.42436,-17.58155 -6.84508,-6.93897 -14.81521,-14.15897 -20.72258,-18.89441 -5.90736,-4.73544 -9.75177,-6.98583 -9.28295,-8.01761 0.46882,-1.03177 5.25089,-0.84424 12.18985,-0.23469 6.93896,0.60954 16.03429,1.64098 25.08301,2.81311 9.04872,1.17213 18.05028,2.48486 26.8646,4.17276 8.81431,1.68791 17.4408,3.75076 24.80166,5.53238 7.36086,1.78161 13.45567,3.28187 23.72343,6.70454 10.26777,3.42266 24.70777,8.76734 37.78852,15.14379 13.08075,6.37646 24.80153,13.78399 34.55346,20.48853 9.75193,6.70454 17.53452,12.70557 24.56714,18.89441 7.03261,6.18884 13.31495,12.56493 20.06629,19.83207 6.75135,7.26713 13.97135,15.4248 20.81646,23.44206 6.84512,8.01727 13.31499,15.89364 19.26925,24.09847 5.95425,8.20483 11.39269,16.73756 14.43971,19.40971 3.04702,2.67216 3.70339,-0.51589 3.9379,-5.81373 0.23451,-5.29785 0.047,-12.70538 -0.42185,-20.95704 -0.46881,-8.25165 -1.21894,-17.34697 0.75079,-20.67595 1.96973,-3.32897 6.65804,-0.89104 12.65922,3.32872 6.00119,4.21976 13.31498,10.22081 20.67576,17.34733 7.36079,7.12653 14.7683,15.37795 21.56647,24.00476 6.79817,8.6268 12.98676,17.62838 16.92493,23.86401 3.93818,6.23563 5.62598,9.70498 6.98554,12.94001 1.35956,3.23503 2.39098,6.23557 3.00028,10.73641 0.60929,4.50084 0.79682,10.50188 0.74987,14.72139 -0.047,4.21951 -0.32825,6.65743 -1.17222,10.68943 -0.84396,4.03199 -2.25047,9.65796 -4.26652,16.12797 -2.01606,6.47 -4.64151,13.78378 -3.18733,19.0349 1.45419,5.25111 6.9864,8.43915 13.36264,13.17463 6.37624,4.73547 13.59623,11.01781 19.92559,16.97218 6.32936,5.95438 11.76779,11.58033 15.84667,16.22194 4.07887,4.64161 6.79807,8.29849 10.22058,13.73715 3.4225,5.43867 7.54822,12.65866 10.50186,18.28479 2.95364,5.62613 4.73521,9.6581 6.42295,14.39342 1.68774,4.73533 3.28175,10.1738 4.59444,15.75303 1.31268,5.57924 2.34413,11.29897 3.28177,18.47229 0.93764,7.17332 1.78153,15.79981 2.15652,21.56652 0.375,5.76671 0.28124,8.67346 -2.43752,8.11074 -2.71875,-0.56272 -8.06338,-4.59464 -13.26759,-8.76733 -5.20422,-4.17269 -10.26762,-8.48594 -16.08126,-12.3775 -5.81364,-3.89155 -12.37724,-7.36088 -16.55009,-9.00219 -4.17286,-1.64131 -5.95445,-1.45377 -5.57947,1.21929 0.37498,2.67307 2.90667,7.83022 4.8287,15.56616 1.92203,7.73593 3.23474,18.05023 4.07859,27.42709 0.84386,9.37686 1.21892,17.81583 1.17198,25.31727 -0.047,7.50145 -0.51577,14.06509 -0.89085,18.8004 -0.37508,4.7353 -0.65638,7.64205 -1.35965,13.36197 -0.70327,5.71992 -1.82845,14.25265 -3.75077,23.16062 -1.92232,8.90796 -4.64156,18.19081 -7.50153,26.30173 -2.85997,8.11092 -5.86047,15.04962 -9.23616,22.78557 -3.37569,7.73596 -7.12636,16.2687 -11.06464,23.53566 -3.93827,7.26695 -8.06399,13.26798 -11.81471,18.33145 -3.75072,5.06347 -7.1263,9.1892 -10.40813,12.65855 -3.28183,3.46936 -6.46994,6.28238 -9.65804,9.00164 -3.1881,2.71926 -6.37615,5.34472 -9.79864,7.82957 -3.42249,2.48484 -7.07939,4.82904 -9.61136,7.36108 -2.53197,2.53203 -3.93844,5.25125 -5.01677,8.53339 -1.07833,3.28215 -1.82847,7.12654 -2.7193,10.97105 -0.89084,3.84451 -1.92224,7.68891 -3.32877,13.31508 -1.40653,5.62617 -3.18809,13.03366 -4.6415,19.50374 -1.45342,6.47008 -2.57865,12.00235 -3.70386,17.95667 -1.12522,5.95433 -2.2504,12.33043 -3.18806,18.98807 -0.93766,6.65764 -1.68779,13.59634 -2.2035,20.53533 -0.5157,6.93899 -0.797,13.87769 -0.89074,20.25397 -0.0937,6.37628 3e-5,12.18988 -2.95318,14.67427 -2.95321,2.4844 -8.95425,1.64048 -15.84632,1.0778 -6.89207,-0.56268 -14.67467,-0.84397 -20.30079,-1.03151 -5.62613,-0.18754 -9.09547,-0.28131 -12.23685,-0.0938 -3.14137,0.18746 -5.95435,0.65628 -8.95521,1.7815 -3.00086,1.12521 -6.18888,2.90676 -11.58068,6.42315 -5.3918,3.51638 -12.98685,8.7673 -20.91042,14.95612 -7.92356,6.18882 -16.17502,13.31507 -23.911,20.76979 -7.73598,7.4546 -14.95597,15.2373 -22.50439,23.4421 -7.54841,8.2048 -15.42478,16.8313 -22.83257,25.6456 -7.40778,8.8143 -14.34651,17.8159 -21.09788,26.724 -6.75137,8.9081 -13.31499,17.7221 -20.48834,27.5678 -7.17334,9.8458 -14.95594,20.7227 -23.39516,32.9596 -8.43922,12.2368 -17.5346,25.833 -25.22295,30.7091 -7.68835,4.8762 -13.97072,1.0317 -24.89483,-4.5007 -10.92411,-5.5325 -26.48931,-12.7525 -44.25858,-20.7698 -17.76927,-8.0172 -37.74147,-16.8313 -55.46381,-23.5827 -17.72233,-6.7514 -33.19376,-11.4397 -44.35225,-14.4404 -11.15849,-3.0007 -18.00342,-4.3134 -23.48897,-5.0168 -5.48554,-0.7033 -9.61125,-0.7971 -12.56523,-0.469 -2.95398,0.3281 -4.73553,1.0782 -7.1736,2.2972 -2.43807,1.219 -5.53236,2.9068 -8.6735,4.2664 -3.14113,1.3597 -6.32917,2.3911 -9.28283,3.1882 -2.95366,0.7971 -5.67288,1.3596 -9.65791,1.4066 -3.98504,0.047 -9.23595,-0.4218 -14.95582,-1.4531 -5.71986,-1.0314 -11.90843,-2.6254 -24.00469,-6.0011 -12.09626,-3.3757 -30.09939,-8.5328 -39.42958,-11.7205 -9.3302,-3.1877 -9.98657,-4.4067 -9.89321,-6.6574 0.0934,-2.2507 0.93726,-5.5325 1.73432,-9.0957 0.79705,-3.5632 1.54718,-7.4076 1.9692,-12.4711 0.42203,-5.0634 0.51579,-11.3457 0.56269,-18.5191 0.0469,-7.1733 0.0469,-15.2372 10e-6,-23.5357 -0.0469,-8.2986 -0.14065,-16.8314 -0.37504,-24.1453 -0.2344,-7.31395 -0.60946,-13.40875 -2.39072,-18.75356 -1.78126,-5.34481 -4.96929,-9.93933 -7.59467,-13.03386 -2.62539,-3.09453 -4.68823,-4.68855 -5.81397,-6.51693 -1.12573,-1.82838 -1.31326,-3.89118 -0.18817,-7.64229 1.1251,-3.75111 3.563,-9.18952 5.39149,-13.54972 1.8285,-4.3602 3.04749,-7.64209 1.26652,-9.89263 -1.78097,-2.25055 -6.56304,-3.46952 -10.64198,-4.59473 -4.07894,-1.12521 -7.45452,-2.15666 -9.65838,-3.70342 -2.20386,-1.54677 -3.23528,-3.60958 -3.75131,-7.40737 -0.51603,-3.7978 -0.51603,-9.33 -0.14099,-16.4096 0.37504,-7.07959 1.12517,-15.70609 1.26589,-23.67642 0.14073,-7.97032 -0.3281,-15.28402 -3.14067,-20.629 -2.81256,-5.34498 -7.96966,-8.72055 -13.36139,-12.37753 -5.39173,-3.65698 -11.0177,-7.59517 -16.12819,-11.8147 -5.11047,-4.21953 -9.70507,-8.7203 -13.08087,-13.12732 -3.3759,-4.40703 -5.5325,-8.72031 -4.5013,-13.17495 1.0312,-4.45464 5.2506,-9.04913 10.1266,-14.20646 4.87601,-5.15733 10.40822,-10.87707 15.65924,-16.83136 5.25102,-5.95428 10.22063,-12.14285 16.83134,-21.3322 6.61071,-9.18934 14.86214,-21.37895 22.17609,-33.42821 7.31396,-12.04925 13.69006,-23.95756 17.81588,-33.05299 4.12582,-9.09543 6.00114,-15.37775 7.78275,-21.66027 1.78161,-6.28251 3.4694,-12.56484 3.79776,-18.89402 0.32837,-6.32919 -0.70306,-12.7053 -1.92199,-18.42518 -1.21892,-5.71987 -2.62542,-10.78324 -3.56323,-16.55011 -0.93781,-5.76686 -1.40664,-12.23673 -1.68797,-21.70747 -0.28134,-9.47073 -0.37511,-21.94164 -0.37512,-31.59983 0,-9.65819 0.0938,-16.50313 -2.67228,-18.37905 -2.76603,-1.87592 -8.39201,1.21836 -15.70609,5.95375 -7.31408,4.73538 -16.31564,11.11148 -27.42735,20.0196 -11.11171,8.90812 -24.33275,20.3476 -34.31913,29.20875 -9.9864,8.86116 -16.7376,15.14351 -23.2545,21.2385 -6.517,6.09499 -12.7993,12.00224 -22.27,21.51986 -9.4707,9.51761 -22.1292,22.64491 -27.8022,24.47371 -5.673,1.82879 -4.3603,-7.64159 -2.6256,-17.34674 1.7347,-9.70515 3.8914,-19.64436 6.9389,-32.16258 3.0475,-12.51822 6.9856,-27.61458 10.1269,-40.22648 3.1413,-12.61189 5.4854,-22.73865 8.5798,-34.92866 3.0944,-12.19001 6.9388,-26.4425 11.6741,-42.10199 4.7354,-15.65948 10.3613,-32.72492 14.6747,-45.1493 4.3133,-12.42439 7.3138,-20.20702 10.924,-27.56801 3.6101,-7.36099 7.8296,-14.29969 12.8933,-20.11354 5.0636,-5.81384 10.97093,-10.50217 18.94144,-15.56574 7.9705,-5.06358 18.00349,-10.50202 19.03529,-14.81505 1.0318,-4.31303 -6.93833,-7.50108 -14.20545,-9.75165 -7.26712,-2.25058 -13.83075,-3.56331 -21.70738,-5.29802 -7.8766,-1.73471 -17.0656,-3.89131 -24.4265,-5.39166 -7.3609,-1.50035 -12.8931,-2.34424 -20.3009,-3.09445 -7.4078,-0.7502 -16.6906,-1.40656 -25.3174,-1.78167 -8.6268,-0.37511 -16.597,-0.46888 -20.2539,-0.4688 -3.6569,7e-5 -3.0005,0.0938 -1.7821,-1.07825 z"
       id="path1302"
       inkscape:original-d="m -1098.0364,346.6135 c 1.7826,-2.43697 3.5642,-4.87495 5.3448,-7.31392 2.8141,-2.71833 5.627,-5.43755 8.4391,-8.15782 5.3459,-4.40619 10.6905,-8.8132 16.0343,-13.2213 5.8148,-3.56226 11.6283,-7.12538 17.4409,-10.68957 6.1898,-3.46849 12.3784,-6.93784 18.5661,-10.40826 9.1904,-4.12488 18.3795,-8.25059 27.5678,-12.37739 12.19109,-3.93734 24.3807,-7.87552 36.56955,-11.81478 5.90851,-1.40555 11.81578,-2.81204 17.72217,-4.21956 8.06523,-1.49932 16.12913,-2.99958 24.19217,-4.50087 5.43966,-0.65539 10.8781,-1.31176 16.31565,-1.96913 4.40819,-0.56162 8.8152,-1.12422 13.22131,-1.68783 5.81473,-0.18654 11.62824,-0.37407 17.44086,-0.56261 5.90851,-0.0928 11.81578,-0.18653 17.72217,-0.2813 5.34589,0.37608 10.69057,0.75114 16.03435,1.12522 3.00164,0.28231 6.00216,0.56361 9.00175,0.84391 2.72033,0.28231 5.43955,0.56361 8.15782,0.84391 3.47049,0.84493 6.93984,1.68883 10.40826,2.53174 0.84493,0.0948 1.68883,0.18854 2.53174,0.28131 -2.99964,-3.56226 -6.00016,-7.12538 -9.00174,-10.68957 -5.34389,-4.78127 -10.68856,-9.56334 -16.03435,-14.34652 -6.5629,-5.15635 -13.12654,-10.31349 -19.6913,-15.47174 -9.46977,-6.46912 -18.94016,-12.93899 -28.41174,-19.40999 -5.43766,-3.18718 -10.8761,-6.37523 -16.31565,-9.56435 -4.49996,-2.43702 -9.00074,-4.87494 -13.50261,-7.31391 6.09605,-1.40555 12.19086,-2.81205 18.28478,-4.21957 7.40883,-1.8744 14.81636,-3.74972 22.22304,-5.62608 12.56618,-1.78063 25.13086,-3.56219 37.69478,-5.34478 12.47242,-0.56162 24.94333,-1.12422 37.41349,-1.68783 10.87831,0.37608 21.7552,0.75114 32.6313,1.12522 10.40946,1.50132 20.81752,3.00158 31.22477,4.50087 12.09733,2.90786 24.19318,5.81462 36.28826,8.72043 9.19046,3.09541 18.37955,6.18969 27.56782,9.28304 10.22193,3.65803 20.44245,7.31491 30.66217,10.97087 9.56554,4.12688 19.1297,8.25259 28.69304,12.37739 4.97081,1.8764 9.94042,3.75172 14.90913,5.62609 0.001,-1.31178 0.001,-2.62451 0,-3.93826 -5.71897,-6.65667 -11.43871,-13.31408 -17.15956,-19.97261 -7.96945,-7.21929 -15.93958,-14.43929 -23.91087,-21.66043 -3.84357,-2.24948 -7.68798,-4.49987 -11.53347,-6.75131 4.78327,0.18854 9.56534,0.37608 14.34652,0.56261 9.09668,1.03247 18.19201,2.0639 27.28651,3.09435 9.00292,1.31378 18.00448,2.62651 27.00522,3.93826 8.62784,2.06394 17.25433,4.1268 25.88,6.18869 6.09604,1.50132 12.19085,3.00158 18.28478,4.50087 14.44157,5.34589 28.88157,10.69057 43.32086,16.03435 11.72225,7.40883 23.44303,14.81636 35.16304,22.22304 7.78391,6.00228 15.5665,12.00332 23.34826,18.00348 6.28359,6.37736 12.56592,12.75346 18.84739,19.12869 7.22128,8.15899 14.44128,16.31665 21.66043,24.47348 6.47113,7.87767 12.941,15.75404 19.41,23.62956 5.43965,8.53407 10.8781,17.06679 16.31565,25.59869 0.65739,-3.18718 1.31375,-6.37523 1.96913,-9.56435 -0.18654,-7.40683 -0.37408,-14.81436 -0.56261,-22.22304 -0.74916,-9.09469 -1.49929,-18.19001 -2.25044,-27.28652 4.6895,2.43902 9.37781,4.87695 14.06522,7.31392 7.31507,6.00228 14.62887,12.00331 21.94177,18.00347 7.4088,8.25276 14.8163,16.50419 22.223,24.75478 6.1898,9.00292 12.3784,18.00448 18.5661,27.00522 1.6888,3.47049 3.3766,6.93984 5.0635,10.40826 1.0324,3.00163 2.0639,6.00215 3.0943,9.00173 0.1886,6.00228 0.3761,12.00332 0.5626,18.00348 -0.2803,2.43902 -0.5616,4.87694 -0.8439,7.31391 -1.4055,5.6272 -2.812,11.25317 -4.2196,16.87826 -2.6245,7.31506 -5.25,14.62882 -7.8765,21.94174 5.5335,3.18918 11.0657,6.37723 16.597,9.56434 7.2213,6.28359 14.4413,12.56593 21.6604,18.84739 5.4397,5.6272 10.8781,11.25318 16.3157,16.87826 2.7203,3.65803 5.4395,7.31491 8.1578,10.97087 4.1269,7.22129 8.2526,14.44129 12.3774,21.66043 1.7826,4.03311 3.5642,8.06506 5.3448,12.09609 1.595,5.43966 3.1891,10.8781 4.7821,16.31565 1.0325,5.72097 2.0639,11.44071 3.0944,17.15956 0.8449,8.62784 1.6888,17.25433 2.5317,25.88 -0.093,2.90787 -0.1865,5.81462 -0.2813,8.72043 -5.3439,-4.03111 -10.6885,-8.06306 -16.0343,-12.09608 -5.0626,-4.31242 -10.126,-8.62567 -15.1905,-12.94 -6.5629,-3.46849 -13.1265,-6.93784 -19.6913,-10.40826 -1.7806,0.18854 -3.5622,0.37607 -5.3447,0.56261 2.5327,5.15834 5.0644,10.31549 7.5952,15.47173 1.3137,10.3157 2.6265,20.62999 3.9382,30.94348 0.3761,8.4403 0.7512,16.87926 1.1252,25.31739 -0.4678,6.56489 -0.9366,13.12853 -1.4065,19.6913 -0.2803,2.90787 -0.5616,5.81462 -0.8439,8.72043 -1.1242,8.53407 -2.2494,17.0668 -3.3756,25.59869 -2.7184,9.28423 -5.4376,18.56709 -8.1579,27.84913 -2.9996,6.93998 -6.0001,13.87868 -9.0017,20.81652 -3.7498,8.53407 -7.5005,17.0668 -11.2522,25.59869 -4.1249,6.00228 -8.2506,12.00332 -12.3774,18.00348 -3.3747,4.12688 -6.7503,8.25259 -10.1269,12.37739 -3.1872,2.8141 -6.3753,5.62713 -9.5644,8.43913 -3.1871,2.6266 -6.3752,5.252 -9.5643,7.8765 -3.656,2.3453 -7.3129,4.6895 -10.9709,7.0327 -1.4055,2.7203 -2.812,5.4395 -4.2195,8.1578 -0.7492,3.8456 -1.4993,7.69 -2.2505,11.5335 -1.0305,3.8456 -2.0619,7.69 -3.0943,11.5335 -1.7807,7.4088 -3.5622,14.8163 -5.3448,22.223 -1.1243,5.5334 -2.2494,11.0657 -3.3757,16.597 -1.1242,6.3773 -2.2494,12.7534 -3.37561,19.1287 -0.74916,6.9399 -1.49929,13.8786 -2.25044,20.8165 -0.28031,6.94 -0.56161,13.8787 -0.84391,20.8165 0.0948,5.8147 0.18853,11.6283 0.2813,17.4409 -6.00028,-0.843 -12.00132,-1.6869 -18.00347,-2.5318 -7.78191,-0.2803 -15.56451,-0.5616 -23.34826,-0.8439 -3.46849,-0.093 -6.93784,-0.1865 -10.40826,-0.2813 -2.8121,0.4699 -5.62509,0.9387 -8.43913,1.4065 -3.18718,1.7827 -6.37523,3.5642 -9.56435,5.3448 -7.59437,5.2521 -15.18943,10.503 -22.78565,15.7531 -8.25075,7.1275 -16.50218,14.2538 -24.75478,21.37911 -7.21928,7.7839 -14.43928,15.5665 -21.66043,23.3483 -7.87568,8.6278 -15.75204,17.2543 -23.62956,25.88 -6.93798,9.0029 -13.87668,18.0045 -20.81652,27.0052 -6.5629,8.8154 -13.12653,17.6294 -19.6913,26.4426 -7.78191,10.8783 -15.56451,21.7552 -23.34826,32.6313 -9.09469,13.5976 -18.19001,27.1938 -27.28652,40.7891 -6.28159,-3.8435 -12.56392,-7.688 -18.84739,-11.5335 -15.56481,-7.2192 -31.13001,-14.4392 -46.69651,-21.6604 -19.97201,-8.8134 -39.94422,-17.6274 -59.91782,-26.4426 -15.47105,-4.6875 -30.94248,-9.3758 -46.41521,-14.0652 -6.84421,-1.3118 -13.68915,-2.6245 -20.53522,-3.9383 -4.12488,-0.093 -8.25059,-0.1865 -12.37739,-0.2813 -1.78063,0.7512 -3.56219,1.5013 -5.34478,2.2505 -3.09341,1.6888 -6.18769,3.3766 -9.28304,5.0634 -3.18718,1.0325 -6.37523,2.0639 -9.56436,3.0944 -2.71833,0.5636 -5.43755,1.1262 -8.15782,1.6878 -5.25012,-0.4678 -10.50103,-0.9367 -15.75305,-1.4065 -6.18781,-1.5931 -12.37639,-3.1871 -18.56608,-4.7822 -18.00284,-5.1563 -36.00595,-10.3135 -54.01042,-15.4717 -0.65539,-1.218 -1.31175,-2.437 -1.96913,-3.657 0.84493,-3.2809 1.68883,-6.5627 2.53174,-9.8456 0.75116,-3.8436 1.50129,-7.688 2.25043,-11.5335 0.0948,-6.2816 0.18854,-12.5639 0.28131,-18.8474 0.001,-8.0632 0.001,-16.1271 0,-24.1922 -0.0928,-8.532 -0.18654,-17.0648 -0.28131,-25.5987 -0.37408,-6.09401 -0.74914,-12.18881 -1.12521,-18.28481 -3.18718,-4.5937 -6.37523,-9.1882 -9.56435,-13.7839 -2.06194,-1.5931 -4.1248,-3.1871 -6.1887,-4.7822 -0.18654,-2.0619 -0.37408,-4.1247 -0.56261,-6.1886 2.43903,-5.4377 4.87695,-10.8761 7.31392,-16.3157 1.22001,-3.2809 2.43897,-6.5628 3.65696,-9.8456 -4.78127,-1.2181 -9.56336,-2.437 -14.34653,-3.657 -3.37472,-1.0305 -6.75031,-2.0619 -10.12696,-3.0944 -1.03047,-2.0619 -2.0619,-4.1247 -3.09435,-6.1886 10e-4,-5.5315 10e-4,-11.0637 0,-16.597 0.75116,-8.6258 1.50129,-17.2523 2.25044,-25.88 -0.46785,-7.3131 -0.93668,-14.6268 -1.40652,-21.9417 -5.15635,-3.3748 -10.3135,-6.7503 -15.47174,-10.127 -5.6252,-3.9373 -11.25117,-7.8755 -16.87826,-11.8148 -4.59371,-4.5 -9.18831,-9.0007 -13.78391,-13.5026 -2.1557,-4.3124 -4.3123,-8.6257 -6.47,-12.94 4.2207,-4.5938 8.4401,-9.18832 12.6587,-13.78396 5.53342,-5.71897 11.06563,-11.43871 16.59695,-17.15956 4.97081,-6.18782 9.94042,-12.37639 14.90913,-18.56609 8.25275,-12.1891 16.50418,-24.37871 24.75478,-36.56956 6.37736,-11.90779 12.75347,-23.8161 19.1287,-35.72565 1.8764,-6.28159 3.75171,-12.56392 5.62608,-18.84739 1.68886,-6.28159 3.37665,-12.56392 5.06347,-18.84739 -1.03047,-6.37535 -2.0619,-12.75146 -3.09434,-19.12869 -1.40555,-5.06258 -2.81205,-10.12595 -4.21957,-15.19043 -0.46785,-6.46913 -0.93668,-12.939 -1.40651,-19.41 -0.0928,-12.47041 -0.18654,-24.94132 -0.2813,-37.41347 0.0948,-6.84421 0.18853,-13.68915 0.2813,-20.53522 -5.6252,3.09541 -11.25117,6.1897 -16.87826,9.28304 -9.00093,6.37736 -18.00249,12.75347 -27.00522,19.1287 -13.22057,11.44093 -26.44161,22.88041 -39.66391,34.31912 -6.7504,6.28359 -13.5016,12.56593 -20.2539,18.84739 -6.2816,5.90851 -12.5639,11.81578 -18.8474,17.72217 -12.6579,13.1288 -25.3164,26.25607 -37.9761,39.38261 1.3138,-9.46977 2.6265,-18.94016 3.9383,-28.41174 2.1577,-9.93862 4.3143,-19.87784 6.47,-29.81825 3.9393,-15.09597 7.8775,-30.19233 11.8148,-45.29 2.3452,-10.12616 4.6894,-20.25291 7.0326,-30.38086 3.8455,-14.25204 7.69,-28.50451 11.5335,-42.75826 5.6272,-17.06514 11.2531,-34.13059 16.8782,-51.19739 3.0016,-7.7819 6.0022,-15.5645 9.0017,-23.34825 4.2207,-6.93798 8.4402,-13.87668 12.6587,-20.81652 5.9085,-4.6875 11.81581,-9.37581 17.7222,-14.06522 10.03439,-5.43766 20.06738,-10.8761 30.09957,-16.31565 -7.96945,-3.18718 -15.93958,-6.37523 -23.91087,-9.56435 -6.5629,-1.31177 -13.12653,-2.6245 -19.6913,-3.93826 -9.1885,-2.1557 -18.3775,-4.31233 -27.5678,-6.46999 -5.5314,-0.84293 -11.0636,-1.68683 -16.597,-2.53174 -9.2822,-0.65539 -18.565,-1.31176 -27.8491,-1.96913 -7.9694,-0.0928 -15.9396,-0.18654 -23.9109,-0.28131 0.6574,0.0948 1.3138,0.18854 1.9692,0.28131 z"
       inkscape:path-effect="#path-effect1304" />
    <path
       style="fill:none;stroke:#000000;stroke-width:1px;stroke-linecap:butt;stroke-linejoin:miter;stroke-opacity:1;paint-order:markers stroke fill"
       d="m -923.58067,936.69638 c 2.76657,-2.71958 6.42353,-3.84478 11.81534,-5.15753 5.39181,-1.31275 12.51803,-2.81302 19.64444,-4.454 7.12642,-1.64097 14.25267,-3.42254 20.86341,-4.87595 6.61075,-1.45341 12.70556,-2.57862 18.19117,-3.04736 5.48561,-0.46874 10.36146,-0.28118 14.90933,0.65674 4.54788,0.93792 8.76738,2.6257 11.95547,4.36063 3.18809,1.73494 5.34468,3.51647 6.37557,5.72011 1.03089,2.20363 0.93712,4.82903 0.0462,8.95472 -0.89089,4.12569 -2.57869,9.75169 -5.48552,15.94027 -2.90684,6.18857 -7.03257,12.93977 -11.6741,19.31596 -4.64152,6.3762 -9.79864,12.37722 -14.01818,16.78428 -4.21953,4.40707 -7.50136,7.22006 -9.7517,9.00161 -2.25035,1.78154 -3.46929,2.53174 -4.54751,1.82914 -1.07823,-0.7026 -2.01588,-2.85921 -3.04746,-6.23492 -1.03158,-3.37572 -2.15678,-7.97032 -3.32872,-11.43976 -1.17194,-3.46944 -2.39092,-5.81363 -4.17245,-8.67361 -1.78153,-2.85998 -4.1257,-6.23557 -4.54812,-9.1428 -0.42242,-2.90724 1.07787,-5.34522 2.76569,-8.29889 1.68782,-2.95367 3.56316,-6.42307 1.5474,-6.84527 -2.01576,-0.42221 -7.92302,2.20323 -13.45534,4.45369 -5.53232,2.25045 -10.68945,4.12577 -14.95591,5.62609 -4.26646,1.50031 -7.64204,2.62552 -11.62706,3.28199 -3.98502,0.65647 -8.57957,0.844 -11.95511,0.46919 -3.37554,-0.37481 -5.53217,-1.3125 -6.84525,-2.29671 -1.31307,-0.98421 -1.78194,-2.0157 -0.84459,-4.45416 0.93736,-2.43846 3.2815,-6.28287 5.39128,-10.36172 2.10978,-4.07886 3.98513,-8.39215 6.75169,-11.11174 z"
       id="path1499"
       inkscape:original-d="m -924.47168,935.10219 c 3.65795,-1.1242 7.31491,-2.2494 10.97087,-3.3756 7.12752,-1.4994 14.25375,-2.9996 21.37912,-4.5009 7.12752,-1.7806 14.25376,-3.5622 21.37913,-5.3448 6.09605,-1.1242 12.19086,-2.2494 18.28478,-3.3757 4.87704,0.1886 9.75289,0.3761 14.62783,0.5627 4.22066,1.6888 8.44014,3.3766 12.6587,5.0634 2.15771,1.7827 4.31433,3.5642 6.47,5.3448 -0.0928,2.6266 -0.18654,5.252 -0.2813,7.8765 -1.68686,5.6272 -3.37466,11.2532 -5.06348,16.8783 -4.12488,6.7524 -8.2506,13.5036 -12.37739,20.2539 -5.15636,6.0023 -10.3135,12.0033 -15.47175,18.0035 -3.28095,2.8141 -6.56277,5.6271 -9.84565,8.43911 -1.21801,0.7512 -2.43697,1.5013 -3.65696,2.2505 -0.9367,-2.1557 -1.87436,-4.31231 -2.81304,-6.47001 -1.12424,-4.5937 -2.24943,-9.1883 -3.37565,-13.784 -1.21801,-2.3432 -2.43697,-4.6874 -3.65696,-7.0326 -2.34325,-3.3747 -4.6874,-6.7503 -7.0326,-10.1269 1.50131,-2.437 3.00157,-4.875 4.50086,-7.3139 1.8764,-3.4685 3.75173,-6.9379 5.62609,-10.4083 -5.90651,2.6266 -11.81378,5.252 -17.72217,7.8765 -5.15635,1.8764 -10.31349,3.7517 -15.47174,5.6261 -3.37472,1.1262 -6.7503,2.2514 -10.12695,3.3757 -4.59373,0.1885 -9.18828,0.376 -13.7839,0.5626 -2.15571,-0.9367 -4.31234,-1.8744 -6.47,-2.8131 -0.46785,-1.0304 -0.93669,-2.0619 -1.40653,-3.0943 2.34525,-3.8436 4.68941,-7.688 7.03261,-11.5335 1.8764,-4.3124 3.75172,-8.6257 5.62608,-12.94 z"
       inkscape:path-effect="#path-effect1501" />
    <path
       style="fill:none;stroke:#000000;stroke-width:1px;stroke-linecap:butt;stroke-linejoin:miter;stroke-opacity:1;paint-order:markers stroke fill"
       d="m -758.31383,1083.631 c 0.0942,3.8448 8.25204,6.8454 17.81649,10.4556 9.56445,3.6101 20.5351,7.8296 32.58443,12.9869 12.04934,5.1574 25.17662,11.2522 36.28822,16.8784 11.11161,5.6261 20.20691,10.7833 30.00578,16.4564 9.79887,5.673 20.3007,11.8616 26.62938,12.5178 6.32869,0.6562 8.48528,-4.2196 11.39216,-9.1895 2.90687,-4.9699 6.56377,-10.0333 12.9401,-18.8008 6.37632,-8.7674 15.47164,-21.2383 26.48954,-35.6788 11.01789,-14.4405 23.95765,-30.8496 34.92864,-43.9304 10.97099,-13.0808 19.97254,-22.8325 27.75535,-31.4123 7.7828,-8.5798 14.34643,-15.98736 22.3169,-23.81716 7.97046,-7.82979 17.34707,-16.08121 22.55124,-20.62901 5.20417,-4.5478 6.23559,-5.39171 6.61064,-7.59469 0.37505,-2.20298 0.0937,-5.76608 -0.75009,-10.68893 -0.84384,-4.92285 -2.25034,-11.20525 -3.79749,-17.44084 -1.54715,-6.2356 -3.23495,-12.4242 -4.9228,-18.7536 -1.68785,-6.3294 -3.37565,-12.7993 -4.26658,-17.86288 -0.89094,-5.06358 -0.98471,-8.72048 -0.37532,-12.47145 0.60938,-3.75096 1.92214,-7.59545 3.56311,-11.34632 1.64097,-3.75086 3.61007,-7.40776 6.65758,-12.75263 3.0475,-5.34488 7.17319,-12.37729 11.95544,-20.44149 4.78225,-8.06419 10.22067,-17.15951 16.45631,-28.36492 6.23565,-11.20541 13.26809,-24.52019 18.51913,-35.77237 5.25104,-11.25218 8.7204,-20.44126 11.81477,-29.34928 3.09438,-8.90802 5.8136,-17.53452 8.01719,-26.16119 2.20359,-8.62668 3.89138,-17.25317 4.50098,-25.36404 0.6096,-8.11088 0.14077,-15.70594 -1.45298,-21.61333 -1.59374,-5.90738 -4.31296,-10.12686 -8.25108,-14.15909 -3.93813,-4.03222 -9.09528,-7.87664 -15.51847,-10.31497 -6.4232,-2.43832 -14.11203,-3.46975 -22.2232,-3.28234 -8.11118,0.18741 -16.64391,1.5939 -24.2393,3.42237 -7.5954,1.82847 -14.2528,4.07886 -20.30108,7.03261 -6.04827,2.95376 -11.48671,6.61064 -16.26904,10.45524 -4.78232,3.84461 -8.90804,7.87656 -12.70577,12.84649 -3.79774,4.96992 -7.26709,10.8772 -10.12705,16.03453 -2.85996,5.15733 -5.11035,9.56434 -10.3608,11.39266 -5.25046,1.82833 -13.50189,1.0782 -17.39377,4.45441 -3.89188,3.3762 -3.42305,10.8775 -3.0011,18.94163 0.42195,8.06414 0.79702,16.69063 1.64097,27.521 0.84396,10.83037 2.15669,23.86388 3.89148,35.63191 1.73479,11.76803 3.89143,22.26993 5.29794,29.30257 1.40652,7.03264 2.06287,10.59575 3.56325,16.40947 1.50038,5.81372 3.84453,13.87762 6.18877,21.70733 2.34423,7.8297 4.68841,15.4248 6.5638,21.28535 1.8754,5.86055 3.28189,9.98625 3.51601,14.01806 0.23413,4.03181 -0.70353,7.97001 -2.81336,14.72135 -2.10983,6.75133 -5.39167,16.31553 -8.86112,26.39568 -3.46945,10.08015 -7.12633,20.67574 -10.73645,30.09949 -3.61012,9.42374 -7.17322,17.67515 -9.79854,22.36327 -2.62531,4.68812 -4.3131,5.81333 -13.97121,9.47032 -9.65811,3.65699 -27.28616,9.84559 -44.7741,16.22189 -17.48795,6.3763 -34.83469,12.9399 -51.47869,19.41 -16.64401,6.47 -32.58427,12.8462 -46.83717,18.7536 -14.2529,5.9074 -26.8176,11.3459 -37.08537,16.4094 -10.26777,5.0635 -18.23789,9.7518 -18.14367,13.5966 z"
       id="path1503"
       inkscape:original-d="m -766.37865,1084.4748 c 8.15883,3.0016 16.31665,6.0022 24.47348,9.0018 10.97209,4.2206 21.94273,8.4401 32.9126,12.6587 13.1288,6.096 26.25607,12.1908 39.38261,18.2847 9.09668,5.1584 18.19201,10.3155 27.28651,15.4718 10.50324,6.1898 21.00506,12.3784 31.50609,18.5661 2.15771,-4.8751 4.31433,-9.7509 6.47,-14.6279 3.65803,-5.0625 7.31491,-10.1259 10.97086,-15.1904 9.09669,-12.4704 18.19202,-24.9413 27.28652,-37.4135 12.94126,-16.4087 25.881,-32.8178 38.82,-49.2282 9.00292,-9.7511 18.00447,-19.5028 27.00521,-29.2557 6.5649,-7.4068 13.12854,-14.81431 19.6913,-22.22301 9.378,-8.2508 18.75463,-16.5022 28.13044,-24.7548 1.03247,-0.843 2.06389,-1.6869 3.09434,-2.5318 -0.28031,-3.5622 -0.56161,-7.1253 -0.84391,-10.6895 -1.40555,-6.2816 -2.81204,-12.564 -4.21956,-18.8474 -1.68686,-6.1878 -3.37466,-12.3764 -5.06348,-18.5661 -1.68686,-6.4691 -3.37465,-12.939 -5.06348,-19.41 -0.0928,-3.656 -0.18654,-7.3129 -0.2813,-10.9709 1.31378,-3.8435 2.6265,-7.688 3.93826,-11.5334 1.97017,-3.6561 3.93926,-7.313 5.90739,-10.9709 4.12688,-7.0318 8.25259,-14.0642 12.37739,-21.0978 5.43966,-9.0948 10.8781,-18.1901 16.31565,-27.2866 7.03375,-13.3144 14.06621,-26.62917 21.09782,-39.94524 3.47049,-9.18846 6.93984,-18.37755 10.40826,-27.56782 2.72033,-8.62584 5.43955,-17.25234 8.15782,-25.88 1.68886,-8.62584 3.37666,-17.25233 5.06348,-25.88 -0.46785,-7.59437 -0.93668,-15.18943 -1.40652,-22.78565 -2.71833,-4.21865 -5.43755,-8.43813 -8.15782,-12.65869 -5.15635,-3.84357 -10.3135,-7.68799 -15.47174,-11.53348 -7.68814,-1.03047 -15.37697,-2.0619 -23.06696,-3.09435 -8.53206,1.40755 -17.06479,2.81405 -25.59869,4.21957 -6.65667,2.25148 -13.31407,4.50187 -19.9726,6.7513 -5.43766,3.65803 -10.8761,7.31491 -16.31565,10.97087 -4.12488,4.03311 -8.2506,8.06506 -12.37739,12.09609 -3.46849,5.9085 -6.93784,11.81578 -10.40826,17.72217 -2.24948,4.40819 -4.49987,8.8152 -6.75131,13.2213 -8.25075,-0.74916 -16.50218,-1.49929 -24.75478,-2.25043 0.46985,7.50259 0.93868,15.00389 1.40653,22.50434 0.37608,8.62784 0.75114,17.25433 1.12521,25.88 1.31378,13.03502 2.62651,26.06853 3.93826,39.1013 2.15771,10.50322 4.31434,21.00512 6.47,31.50612 0.65739,3.5643 1.31376,7.1274 1.96913,10.6896 2.34525,8.0652 4.68941,16.1291 7.03261,24.1922 2.34525,7.5963 4.68941,15.1914 7.03261,22.7856 1.40755,4.1269 2.81404,8.2526 4.21956,12.3774 -0.9367,3.9393 -1.87436,7.8775 -2.81304,11.8148 -3.28095,9.5655 -6.56277,19.1297 -9.84565,28.693 -3.65603,10.597 -7.31291,21.1926 -10.97087,31.7874 -3.56226,8.2528 -7.12538,16.5042 -10.68956,24.7548 -1.68686,1.1263 -3.37466,2.2515 -5.06348,3.3757 -17.62776,6.18981 -35.25581,12.37841 -52.88521,18.56611 -17.34645,6.5649 -34.6932,13.1285 -52.0413,19.6913 -15.9399,6.3773 -31.88016,12.7534 -47.82173,19.1287 -12.56418,5.4396 -25.12886,10.8781 -37.69478,16.3156 -7.96945,4.6895 -15.93958,9.3778 -23.91087,14.0652 z"
       inkscape:path-effect="#path-effect1505" />
    <path
       style="fill:none;stroke:#000000;stroke-width:1px;stroke-linecap:butt;stroke-linejoin:miter;stroke-opacity:1;paint-order:markers stroke fill"
       d="m -863.99094,507.37915 c 0.37456,2.57897 -1.50081,8.11129 -3.70438,14.95647 -2.20357,6.84517 -4.73526,15.00283 -7.68897,26.16142 -2.95372,11.15859 -6.32931,25.31729 -8.34532,34.08467 -2.01601,8.76739 -2.67237,12.14297 0.46915,11.72049 3.14152,-0.42247 10.08022,-4.64195 17.67551,-9.28352 7.5953,-4.64157 15.84673,-9.70495 27.38042,-15.9875 11.53368,-6.28255 26.34874,-13.78385 38.77313,-19.9726 12.42439,-6.18874 22.45737,-11.06458 35.86644,-16.73762 13.40907,-5.67304 30.19322,-12.14291 41.16413,-16.40938 10.97091,-4.26647 16.12806,-6.32933 22.36385,-8.01714 6.23578,-1.6878 13.54955,-3.00053 17.58128,-1.21825 4.03172,1.78228 4.78185,6.65813 7.36071,13.87841 2.57886,7.22027 6.98587,16.78443 12.79959,28.64623 5.81372,11.8618 13.03372,26.0205 20.20711,39.00749 7.17338,12.98699 14.29961,24.80153 18.42528,32.25614 4.12568,7.45461 5.25087,10.5489 5.39123,14.58078 0.14035,4.03188 -0.70354,9.00149 -1.35994,12.42399 -0.65641,3.42251 -1.12524,5.29784 -5.43798,5.39135 -4.31275,0.0935 -12.47041,-1.59427 -22.83191,-3.79784 -10.3615,-2.20357 -22.92618,-4.92279 -34.27222,-7.36079 -11.34604,-2.43799 -21.4728,-4.59462 -32.91264,-6.79821 -11.43985,-2.2036 -24.19206,-4.45399 -36.94464,-6.79821 -12.75258,-2.34422 -25.50479,-4.78214 -39.57018,-7.07951 -14.06538,-2.29737 -29.44304,-4.454 -44.21169,-6.04811 -14.76865,-1.5941 -28.92735,-2.62553 -40.46095,-3.1413 -11.5336,-0.51576 -20.44139,-0.51576 -25.36462,-3.09386 -4.92323,-2.5781 -5.8609,-7.73524 -6.658,-14.72109 -0.7971,-6.98585 -1.45346,-15.79988 -1.50041,-24.61424 -0.047,-8.81436 0.51565,-17.62838 0.93761,-24.61415 0.42197,-6.98577 0.70327,-12.14291 1.03142,-15.84684 0.32815,-3.70393 0.70321,-5.95432 2.01615,-7.87705 1.31294,-1.92274 3.56333,-3.51677 7.03291,-5.43907 3.46958,-1.9223 8.15789,-4.17269 13.22159,-5.90739 5.06369,-1.73471 10.50213,-2.95367 14.53423,-3.75068 4.03211,-0.79701 6.65756,-1.17207 7.03211,1.40691 z"
       id="path1507"
       inkscape:original-d="m -861.74082,504.42522 c -1.87436,5.53331 -3.74972,11.06563 -5.62609,16.59695 -2.53079,8.15899 -5.06247,16.31665 -7.59521,24.47348 -3.37472,14.16026 -6.75031,28.31896 -10.12696,42.47695 -0.65539,3.37672 -1.31175,6.7523 -1.96913,10.12695 6.93998,-4.21865 13.87868,-8.43813 20.81652,-12.65869 8.25276,-5.06258 16.50419,-10.12596 24.75478,-15.19043 14.81667,-7.5006 29.63173,-15.0019 44.44609,-22.50435 10.03439,-4.87504 20.06738,-9.75088 30.09956,-14.62782 16.78583,-6.46913 33.56999,-12.939 50.35348,-19.41 5.15834,-2.06194 10.31549,-4.1248 15.47173,-6.1887 7.31506,-1.31178 14.62883,-2.6245 21.94174,-3.93826 0.75116,4.87704 1.50129,9.75289 2.25043,14.62783 4.40819,9.56554 8.81521,19.12969 13.22131,28.69304 7.22128,14.16026 14.44128,28.31896 21.66043,42.47695 7.12752,11.81602 14.25375,23.63056 21.37913,35.44434 1.12624,3.09541 2.25143,6.1897 3.37565,9.28304 -0.84293,4.97081 -1.68683,9.94042 -2.53174,14.90913 -0.46785,1.8764 -0.93668,3.75173 -1.40652,5.62609 -8.15699,-1.68686 -16.31465,-3.37465 -24.47348,-5.06348 -12.56417,-2.71833 -25.12885,-5.43755 -37.69478,-8.15782 -10.12615,-2.15571 -20.25291,-4.31234 -30.38086,-6.47 -12.75172,-2.24948 -25.50393,-4.49987 -38.25739,-6.75131 -12.75171,-2.43702 -25.50392,-4.87494 -38.25738,-7.31391 -15.37728,-2.15571 -30.75494,-4.31233 -46.13391,-6.47 -14.15828,-1.03047 -28.31698,-2.0619 -42.47696,-3.09435 -8.90715,0.001 -17.81494,0.001 -26.72391,0 -0.9367,-5.15634 -1.87436,-10.31349 -2.81305,-15.47173 -0.65539,-8.81338 -1.31175,-17.62741 -1.96913,-26.44261 0.56362,-8.81338 1.12622,-17.6274 1.68783,-26.4426 0.28231,-5.15635 0.56361,-10.31349 0.84391,-15.47174 0.37608,-2.24948 0.75115,-4.49987 1.12522,-6.7513 2.25148,-1.59309 4.50187,-3.18712 6.7513,-4.78218 4.6895,-2.24948 9.37781,-4.49987 14.06522,-6.7513 5.43966,-1.21801 10.8781,-2.43697 16.31565,-3.65696 2.62656,-0.37408 5.25201,-0.74914 7.87652,-1.12521 z"
       inkscape:path-effect="#path-effect1509" />
    <path
       style="fill:none;stroke:#000000;stroke-width:1px;stroke-linecap:butt;stroke-linejoin:miter;stroke-opacity:1;paint-order:markers stroke fill"
       d="m -627.97637,700.07301 c 0.46821,10.54918 -1.31339,30.80309 -2.62615,45.61854 -1.31276,14.81545 -2.15666,24.19207 -2.71927,30.28702 -0.56262,6.09495 -0.84392,8.90794 -3.00064,12.98654 -2.15672,4.07859 -6.18866,9.42324 -12.89319,18.70646 -6.70453,9.28321 -16.08116,22.5043 -24.23904,33.52212 -8.15787,11.01782 -15.09656,19.83183 -21.98859,28.36481 -6.89202,8.53298 -13.73694,16.78439 -19.08175,23.20754 -5.34481,6.42315 -9.18926,11.01773 -12.9865,10.17428 -3.79725,-0.84345 -7.54788,-7.12576 -11.76737,-12.75198 -4.21948,-5.62622 -8.9078,-10.59582 -15.37782,-16.64399 -6.47002,-6.04816 -14.72147,-13.17444 -22.0823,-19.26944 -7.36082,-6.095 -13.83071,-11.15838 -21.14466,-15.23753 -7.31394,-4.07916 -15.4716,-7.17346 -22.36378,-8.4396 -6.89217,-1.26613 -12.51815,-0.70351 -18.47258,0.37479 -5.95442,1.0783 -12.23679,2.67231 -18.14423,4.17261 -5.90745,1.5003 -11.43966,2.9068 -18.09729,4.7353 -6.65763,1.8285 -14.44023,4.07889 -22.17616,6.1887 -7.73592,2.10981 -15.42475,4.0789 -22.87927,5.29796 -7.45451,1.21907 -14.67451,1.68792 -20.72251,0.2349 -6.048,-1.45301 -10.92385,-4.82861 -16.64377,-9.14195 -5.71991,-4.31334 -12.28359,-9.5643 -17.1127,-13.59632 -4.8291,-4.03202 -7.9234,-6.84501 -7.97072,-9.47105 -0.0473,-2.62603 2.95325,-5.06398 6.46948,-8.62712 3.51623,-3.56314 7.54821,-8.25152 11.25202,-13.26806 3.70381,-5.01655 7.0794,-10.36123 11.15836,-16.87818 4.07896,-6.51696 8.86104,-14.20579 13.1744,-21.6135 4.31337,-7.4077 8.15779,-14.53394 11.58035,-20.7227 3.42257,-6.18876 6.42309,-11.43967 8.95484,-15.94057 2.53176,-4.5009 4.59461,-8.25154 5.90756,-8.34489 1.31294,-0.0933 1.87554,3.46978 2.90705,8.43958 1.03152,4.96979 2.53178,11.34589 3.61007,16.50316 1.0783,5.15727 1.73466,9.09544 3.32897,13.40885 1.59431,4.31341 4.126,9.00172 7.87694,13.92451 3.75094,4.9228 8.72055,10.07994 13.54974,14.25253 4.82919,4.17259 9.5175,7.36065 13.4558,9.28263 3.9383,1.92198 7.12635,2.57834 10.2675,2.81261 3.14115,0.23427 6.23544,0.0467 9.37615,-2.4849 3.14072,-2.53163 6.32877,-7.40748 8.86052,-13.6429 2.53175,-6.23542 4.40708,-13.83048 5.71989,-22.73845 1.31282,-8.90797 2.06295,-19.12849 2.20365,-31.03712 0.1407,-11.90863 -0.32813,-25.50473 -0.79697,-36.85075 -0.46884,-11.34602 -0.93767,-20.44135 10.73723,-23.30169 11.6749,-2.86033 35.49153,0.51525 56.402,3.7503 20.91048,3.23504 38.9136,6.32933 56.4484,9.32994 17.53481,3.00061 34.60026,5.90736 47.21214,7.92337 12.61189,2.016 20.76955,3.1412 26.20816,4.12588 5.43862,0.98468 8.15783,1.82858 8.62604,12.37776 z"
       id="path1511"
       inkscape:original-d="m -625.72649,690.36737 c -1.7806,20.25491 -3.56219,40.50882 -5.34478,60.76173 -0.84293,9.378 -1.68683,18.75462 -2.53174,28.13043 -0.28031,2.8141 -0.56161,5.62709 -0.84391,8.43913 -4.03111,5.34589 -8.06306,10.69053 -12.09609,16.03433 -9.376,13.2226 -18.75262,26.4437 -28.13043,39.664 -6.93798,8.8154 -13.87668,17.6294 -20.81652,26.4426 -6.84421,8.2528 -13.68914,16.5042 -20.53522,24.7548 -3.84356,4.5957 -7.68798,9.1903 -11.53347,13.7839 -3.7498,-6.2816 -7.50045,-12.5639 -11.25218,-18.8474 -4.68749,-4.9688 -9.37581,-9.9384 -14.06521,-14.9091 -8.25076,-7.1255 -16.50219,-14.2518 -24.75478,-21.3792 -6.46913,-5.0625 -12.939,-10.1259 -19.41,-15.1904 -8.15699,-3.0934 -16.31465,-6.1877 -24.47347,-9.2831 -5.6252,0.5637 -11.25118,1.1263 -16.87827,1.6879 -6.28159,1.595 -12.56393,3.1891 -18.84739,4.7821 -5.53143,1.4076 -11.06364,2.8141 -16.59696,4.2196 -7.7819,2.2515 -15.5645,4.5019 -23.34825,6.7513 -7.68814,1.9702 -15.37697,3.9393 -23.06696,5.9074 -7.21928,0.4699 -14.43928,0.9387 -21.66042,1.4066 -4.87504,-3.3748 -9.75089,-6.7504 -14.62783,-10.127 -6.5629,-5.2501 -13.12654,-10.5011 -19.69131,-15.7531 -3.0934,-2.8121 -6.18769,-5.6251 -9.28304,-8.4391 3.00164,-2.437 6.00216,-4.875 9.00174,-7.3139 4.03311,-4.6875 8.06506,-9.3759 12.09609,-14.0653 3.37672,-5.34386 6.7523,-10.68854 10.12695,-16.03432 4.78327,-7.68814 9.56536,-15.37697 14.34653,-23.06696 3.84557,-7.12551 7.68999,-14.25175 11.53348,-21.37912 3.00163,-5.25012 6.00215,-10.50103 9.00173,-15.75304 2.06394,-3.7498 4.12679,-7.50045 6.18869,-11.25218 0.56362,3.56426 1.12622,7.12738 1.68783,10.68957 1.50132,6.37736 3.00158,12.75346 4.50087,19.12869 0.65739,3.93934 1.31375,7.87752 1.96913,11.81478 2.53279,4.6895 5.06447,9.37781 7.59521,14.06522 4.97081,5.15835 9.94042,10.31549 14.90913,15.47173 4.6895,3.18918 9.37781,6.37724 14.06522,9.56435 3.18918,0.65739 6.37723,1.31375 9.56434,1.96913 3.09541,-0.18654 6.1897,-0.37407 9.28305,-0.56261 3.18917,-4.87504 6.37723,-9.75088 9.56434,-14.62782 1.8764,-7.59437 3.75174,-15.18943 5.6261,-22.78565 0.75116,-10.21993 1.50129,-20.44045 2.25043,-30.66217 -0.46785,-13.59565 -0.93668,-27.19175 -1.40652,-40.78913 -0.46785,-9.09468 -0.93668,-18.19001 -1.40652,-27.28651 23.81857,3.37671 47.6352,6.7523 71.4513,10.12695 18.00483,3.09541 36.00795,6.1897 54.01042,9.28304 17.06714,2.90787 34.13259,5.81463 51.19739,8.72044 8.15899,1.12624 16.31665,2.25143 24.47347,3.37565 2.72033,0.84493 5.43955,1.68882 8.15783,2.53174 z"
       inkscape:path-effect="#path-effect1513" />
    <path
       style="fill:none;stroke:#000000;stroke-width:1px;stroke-linecap:butt;stroke-linejoin:miter;stroke-opacity:1;paint-order:markers stroke fill"
       d="m -896.66625,643.63379 c -2.88482,0.92863 -3.21635,3.24927 -2.48633,4.67457 0.73002,1.4253 2.52019,1.95572 10.04584,4.2101 7.52564,2.25438 20.78619,6.23255 27.34975,7.52583 6.56355,1.29328 6.43095,-0.0991 6.23204,-2.18769 -0.19892,-2.0886 -0.46413,-4.87332 -2.9832,-6.8297 -2.51907,-1.95639 -7.29287,-3.08354 -11.73527,-4.17755 -4.44241,-1.09401 -8.55318,-2.15486 -13.32718,-2.91747 -4.774,-0.7626 -10.21082,-1.22672 -13.09565,-0.29809 z"
       id="path1708"
       inkscape:original-d="m -899.21943,642.24094 c -0.33052,2.32164 -0.66204,4.64228 -0.99457,6.96192 1.79125,0.53145 3.58142,1.06187 5.37063,1.5913 13.26208,3.97932 26.52263,7.95749 39.78244,11.93473 -0.13161,-1.39141 -0.26422,-2.78377 -0.39782,-4.17715 -0.26422,-2.78383 -0.52944,-5.56854 -0.79565,-8.35432 -4.77299,-1.12619 -9.54679,-2.25333 -14.32168,-3.3815 -4.10993,-1.05989 -8.2207,-2.12073 -12.33255,-3.1826 -5.43605,-0.46314 -10.87287,-0.92725 -16.3108,-1.39238 z"
       inkscape:path-effect="#path-effect1710" />
    <path
       style="fill:none;stroke:#000000;stroke-width:1px;stroke-linecap:butt;stroke-linejoin:miter;stroke-opacity:1;paint-order:markers stroke fill"
       d="m -899.88203,665.11629 c -0.39829,2.05595 -0.46459,6.1005 0.13269,8.15547 0.59728,2.05496 1.85704,2.12126 7.99035,3.94483 6.13331,1.82356 17.13956,5.40391 24.33359,7.89038 7.19403,2.48647 10.57547,3.87883 12.16621,3.41497 1.59074,-0.46386 1.39183,-2.78446 1.06037,-5.13824 -0.33146,-2.35378 -0.79558,-4.74068 -3.44731,-6.63076 -2.65173,-1.89009 -7.49183,-3.28245 -13.06142,-5.07264 -5.5696,-1.79019 -11.86836,-3.97818 -16.54283,-5.50323 -4.67448,-1.52505 -7.7244,-2.38698 -9.61422,-2.78501 -1.88982,-0.39803 -2.61915,-0.33173 -3.01743,1.72423 z"
       id="path1712"
       inkscape:original-d="m -900.214,663.12672 c -0.0653,4.04554 -0.1316,8.09009 -0.19891,12.13364 1.2608,0.0673 2.52056,0.13361 3.77933,0.19891 11.0077,3.58149 22.01395,7.16184 33.01943,10.74126 3.38257,1.39341 6.76401,2.78577 10.14452,4.17716 -0.19792,-2.31969 -0.39683,-4.64029 -0.59674,-6.96193 -0.46314,-2.38599 -0.92725,-4.77289 -1.39238,-7.16084 -4.8393,-1.39141 -9.6794,-2.78377 -14.52059,-4.17715 -6.29801,-2.18708 -12.59677,-4.37507 -18.89666,-6.56411 -3.04905,-0.86097 -6.09897,-1.7229 -9.14996,-2.58586 -0.72836,0.0673 -1.45769,0.13361 -2.18804,0.19892 z"
       inkscape:path-effect="#path-effect1714" />
    <path
       style="fill:none;stroke:#000000;stroke-width:1px;stroke-linecap:butt;stroke-linejoin:miter;stroke-opacity:1;paint-order:markers stroke fill"
       d="m -900.41291,690.97442 c 0.33163,3.3163 0.66315,6.6315 1.59197,8.6867 0.92882,2.0552 2.45378,2.85084 6.69731,4.50837 4.24353,1.65753 11.20532,4.17703 17.04013,6.39827 5.83481,2.22123 10.5423,4.14401 14.25535,5.53635 3.71305,1.39234 6.43146,2.25427 7.65756,1.72419 1.2261,-0.53008 0.96089,-2.45286 0.82821,-4.64098 -0.13269,-2.18812 -0.13269,-4.64132 -0.99406,-6.266 -0.86137,-1.62468 -2.58524,-2.42031 -5.43635,-3.48127 -2.85112,-1.06096 -6.82928,-2.38701 -12.10052,-4.27667 -5.27124,-1.88967 -11.8352,-4.34287 -16.60914,-5.9674 -4.77394,-1.62452 -7.75756,-2.42016 -9.71375,-2.71876 -1.9562,-0.2986 -2.88444,-0.0997 -3.81344,0.0994"
       id="path1716"
       inkscape:original-d="m -900.41291,690.97442 c 0.33252,3.31621 0.66404,6.63141 0.99456,9.94561 1.52603,0.79667 3.05099,1.5923 4.57498,2.38695 6.96307,2.5206 13.92486,5.04011 20.88578,7.55866 4.70869,1.92386 9.41618,3.84664 14.12277,5.76846 2.71952,0.86297 5.43793,1.7249 8.1554,2.58585 -0.26422,-1.92185 -0.52943,-3.84463 -0.79565,-5.76845 10e-4,-2.4523 10e-4,-4.9055 0,-7.35975 -1.72294,-0.79467 -3.44681,-1.5903 -5.17172,-2.38695 -3.97732,-1.3251 -7.95548,-2.65116 -11.93473,-3.97824 -6.56323,-2.4523 -13.1272,-4.9055 -19.6923,-7.35975 -2.98275,-0.79467 -5.96637,-1.5903 -8.95105,-2.38695 -0.92728,0.19992 -1.85552,0.39883 -2.78477,0.59674"
       inkscape:path-effect="#path-effect1718" />
    <path
       style="fill:none;stroke:#000000;stroke-width:1px;stroke-linecap:butt;stroke-linejoin:miter;stroke-opacity:1;paint-order:markers stroke fill"
       d="m -894.57753,719.85054 c 1.39296,-0.56392 4.24403,0.29803 8.81908,1.69044 4.57504,1.39241 10.8738,3.31519 16.4434,5.3044 5.56959,1.98922 10.4097,4.0446 12.99505,6.03406 2.58535,1.98945 2.91687,3.91223 3.04936,6.0339 0.1325,2.12167 0.0662,4.44226 -0.72893,5.56897 -0.79513,1.1267 -2.3201,1.0604 -7.49182,-0.76278 -5.17172,-1.82317 -13.98998,-5.40352 -19.99053,-7.88992 -6.00055,-2.48639 -9.18309,-3.87875 -11.10632,-5.60234 -1.92324,-1.72359 -2.58626,-3.77897 -2.95111,-5.80135 -0.36485,-2.02238 -0.43115,-4.01146 0.96182,-4.57538 z"
       id="path1720"
       inkscape:original-d="m -896.03684,718.42431 c 2.85208,0.86295 5.70315,1.7249 8.55322,2.58585 6.30002,1.92386 12.59878,3.84664 18.89666,5.76846 4.8413,2.05646 9.6814,4.11185 14.52059,6.16627 0.33253,1.92386 0.66404,3.84664 0.99456,5.76846 -0.0653,2.32169 -0.13161,4.64228 -0.19891,6.96192 -1.52402,-0.0653 -3.04899,-0.1316 -4.57498,-0.19891 -8.81762,-3.57949 -17.63588,-7.15984 -26.45532,-10.74126 -3.18166,-1.39141 -6.36419,-2.78377 -9.54779,-4.17715 -0.66205,-2.05447 -1.32508,-4.10985 -1.98912,-6.16628 -0.0653,-1.98816 -0.13161,-3.97724 -0.19891,-5.96736 z"
       inkscape:path-effect="#path-effect1722" />
    <path
       style="fill:none;stroke:#000000;stroke-width:1px;stroke-linecap:butt;stroke-linejoin:miter;stroke-opacity:1;paint-order:markers stroke fill"
       d="m -889.53883,748.09597 c 0.0665,1.09462 0.66325,2.81853 1.69116,4.74134 1.02791,1.9228 2.48657,4.04449 4.27694,6.03353 1.79037,1.98903 3.91205,3.84551 6.23277,5.56933 2.32072,1.72383 4.84023,3.3151 7.55873,4.50837 2.7185,1.19327 5.63582,1.98891 7.8897,1.85605 2.25388,-0.13286 3.84515,-1.1937 4.97212,-2.81778 1.12696,-1.62407 1.78999,-3.81206 1.6911,-5.37002 -0.0989,-1.55796 -0.96082,-2.4862 -3.67922,-3.7463 -2.71839,-1.2601 -7.29328,-2.85136 -11.30471,-4.47575 -4.01143,-1.62438 -7.45917,-3.28195 -10.44288,-4.67437 -2.98371,-1.39241 -5.50321,-2.51956 -6.99566,-2.85134 -1.49245,-0.33179 -1.95657,0.13233 -1.89005,1.22694 z"
       id="path1724"
       inkscape:original-d="m -890.06947,747.46548 c 0.59773,1.72491 1.19447,3.44882 1.79021,5.17172 1.45971,2.12277 2.91837,4.24446 4.37606,6.36519 2.12278,1.85755 4.24446,3.71403 6.36519,5.56954 2.52061,1.59233 5.04011,3.1836 7.55867,4.7739 2.91843,0.79666 5.83575,1.59229 8.75213,2.38694 1.59233,-1.05988 3.1836,-2.12073 4.7739,-3.18259 0.66405,-2.18708 1.32708,-4.37507 1.98912,-6.56411 -0.86097,-0.92727 -1.72291,-1.85551 -2.58586,-2.78477 -4.57407,-1.59033 -9.14896,-3.18159 -13.72494,-4.77389 -3.44688,-1.65663 -6.89462,-3.3142 -10.34344,-4.9728 -2.5186,-1.1262 -5.0381,-2.25334 -7.55866,-3.38151 -0.46314,0.46514 -0.92726,0.92926 -1.39238,1.39238 z"
       inkscape:path-effect="#path-effect1726" />
    <rect
       style="fill:#ffffff;fill-opacity:1;stroke-width:6.22791;paint-order:markers stroke fill"
       id="rect2355"
       width="1368.5159"
       height="1365.3333"
       x="0.74834633"
       y="1.6631637"
       rx="0" />
  </g>
  <g
     id="layer1"
     inkscape:label="hero"
     style="display:inline"
     inkscape:groupmode="layer">
    <path
       style="display:inline;opacity:1;fill:#131d30;fill-opacity:1;stroke:#143454;stroke-width:1.591;stroke-miterlimit:4;stroke-dasharray:none;stroke-opacity:1;paint-order:markers stroke fill"
       d="m 712.31421,1193.7015 c -3.06325,-1.1304 -11.42229,-4.9988 -18.57565,-8.5964 -52.99633,-26.653 -114.32081,-50.5877 -147.71494,-57.6526 -19.7731,-4.1832 -24.68228,-3.9125 -37.92442,2.0919 -19.17184,8.6931 -34.06094,7.233 -84.36272,-8.2727 -8.61861,-2.6568 -17.56966,-5.7617 -19.89122,-6.8998 -4.57168,-2.2412 -4.53642,-1.8418 -1.70366,-19.2938 1.10347,-6.7981 1.55026,-25.3231 1.17056,-48.5346 -0.56564,-34.5789 -0.89117,-38.1497 -4.12715,-45.2715 -1.93221,-4.25243 -5.66717,-10.18503 -8.29994,-13.18363 -2.63276,-2.9986 -4.78685,-5.7687 -4.78685,-6.1559 0,-0.3871 1.82152,-5.5433 4.04782,-11.458 5.9596,-15.8332 5.26314,-18.0216 -7.08021,-22.2469 -5.60628,-1.9192 -10.78692,-4.4255 -11.51254,-5.5696 -0.72562,-1.1441 -1.33295,-15.3277 -1.34962,-31.5192 -0.0361,-35.0964 -0.0548,-35.1452 -18.66109,-48.7081 -21.30439,-15.5297 -30.68755,-25.9104 -30.68755,-33.9502 0,-1.7892 5.18846,-9.0534 11.5369,-16.15236 20.56394,-22.99505 26.60956,-30.57483 39.22591,-49.17998 26.7417,-39.43563 41.22892,-71.56282 42.69533,-94.6822 0.48737,-7.68377 -0.29652,-15.58162 -2.52708,-25.46076 -2.34126,-10.3694 -3.50415,-22.88494 -4.21391,-45.35198 -1.17638,-37.23703 -1.32692,-38.19114 -6.02532,-38.19114 -12.05457,0 -60.90142,39.31683 -123.26494,99.21592 -13.35025,12.82269 -24.94435,23.31399 -25.76467,23.31399 -3.18184,0 -3.36818,-3.69162 -0.86361,-17.10941 4.15287,-22.24828 30.01544,-124.45176 38.75695,-153.15942 21.38762,-70.23823 30.23951,-86.0669 58.26249,-104.18323 14.698,-9.50198 17.3736,-12.24679 16.03847,-16.4534 -1.73009,-5.45102 -15.39435,-9.93184 -54.19996,-17.77338 -17.04571,-3.44447 -30.83481,-5.12082 -48.23424,-5.86386 l -24.36479,-1.04052 9.24746,-9.41985 c 23.7438,-24.18643 75.30002,-50.22085 124.9095,-63.07573 31.40133,-8.13675 51.23037,-10.46047 89.61533,-10.50181 25.00137,-0.0269 39.53945,0.635 45.87601,2.08873 5.10188,1.17048 9.67727,1.72703 10.1675,1.23678 1.65395,-1.65394 -7.65349,-12.13034 -20.7492,-23.35522 -15.90906,-13.63631 -36.3216,-28.28961 -57.94501,-41.59627 -8.95705,-5.512 -16.29691,-10.52522 -16.3108,-11.14049 -0.0597,-2.63968 41.61711,-11.28126 67.93784,-14.08674 26.87865,-2.86496 79.41884,-1.2183 101.51006,3.18141 33.97767,6.76702 71.15154,18.67901 116.46668,37.32055 18.34562,7.54693 24.36315,8.84486 24.36315,5.25489 0,-3.50639 -18.07838,-23.60018 -31.66076,-35.19036 -7.09257,-6.05226 -12.89557,-11.34264 -12.89557,-11.75639 0,-1.15577 22.4442,1.08083 44.55633,4.4401 40.8407,6.20451 81.10491,18.85966 110.20298,34.63708 39.20879,21.25962 76.79382,56.63374 113.2743,106.61105 7.0483,9.65599 11.78743,14.71951 13.7765,14.71951 2.84669,0 3.03214,-1.45415 3.03214,-23.77555 0,-14.9988 0.62134,-24.15956 1.68315,-24.81579 5.23298,-3.23417 45.52425,35.51516 61.70245,59.34111 12.7468,18.77237 15.6975,25.61947 16.9688,39.3761 0.8593,9.299 0.3145,13.76776 -3.2982,27.05205 -5.4996,20.22274 -6.17,25.1161 -3.9972,29.17609 0.9661,1.80511 8.4276,8.64761 16.5811,15.20555 43.4082,34.91332 62.084,68.06045 67.7678,120.27844 0.9026,8.29297 1.0734,15.64586 0.3795,16.33978 -0.6939,0.6939 -8.0156,-3.86726 -16.2704,-10.13594 -16.7255,-12.70126 -33.0667,-21.36484 -35.5723,-18.85928 -1.0353,1.03531 -0.91,3.8786 0.3669,8.32686 5.8588,20.41019 7.1617,31.22244 7.2377,60.06321 0.091,34.55116 -2.4269,51.73808 -11.6568,79.56487 -15.654,47.19434 -34.4537,76.39958 -63.0174,97.89719 -12.56559,9.4572 -13.17202,10.5309 -18.85435,33.3849 -8.59845,34.5822 -13.65717,64.046 -15.4366,89.9083 -0.99361,14.441 -2.45732,27.0769 -3.2527,28.0798 -1.03154,1.3007 -8.84642,1.579 -27.25868,0.9708 -25.34013,-0.837 -25.95938,-0.7782 -33.83447,3.2124 -19.92564,10.0971 -49.64666,35.32663 -76.53675,64.97033 -28.22504,31.1153 -47.39422,55.697 -86.11593,110.431 -16.42553,23.2179 -18.36177,25.6058 -24.84916,30.6462 -5.21136,4.0489 -6.01961,4.1248 -13.70925,1.2871 z m 12.05416,-19.6251 c 0.94092,-0.643 4.81679,-5.8237 8.61307,-11.5126 11.98277,-17.9567 51.49942,-69.9949 69.41663,-91.4125 23.70079,-28.3311 49.8142,-56.416 67.19274,-72.26553 13.99243,-12.7613 14.58353,-13.5734 14.58353,-20.0365 0,-3.7049 -3.22238,-19.7744 -7.16084,-35.71 -3.93846,-15.9356 -7.16084,-30.7212 -7.16084,-32.857 0,-6.9961 5.49997,-18.5868 23.37901,-49.2693 40.32618,-69.20453 57.75369,-113.69167 58.28592,-148.78636 0.28627,-18.87687 -1.71852,-24.77118 -11.55452,-33.97162 -10.63148,-9.94449 -21.08304,-12.90157 -41.41185,-11.71671 -33.66721,1.96231 -61.84995,17.50813 -75.6155,41.71009 -9.18985,16.15718 -11.16072,17.98231 -21.64589,20.04513 -14.14987,2.78383 -14.86067,4.39465 -13.46227,30.5084 2.55351,47.68449 9.19648,86.77207 21.82667,128.42957 8.47512,27.9531 9.14135,33.258 5.60035,44.5942 -6.28717,20.1278 -21.22581,61.0284 -25.93346,71.00353 -6.1043,12.9345 -5.52627,12.5785 -40.70743,25.0694 -54.97831,19.5197 -130.42703,49.5964 -154.66604,61.6556 -14.37655,7.1525 -20.07632,11.6835 -20.07632,15.9594 0,3.5394 2.93809,5.0607 31.82595,16.4788 29.21025,11.5455 56.45589,24.4578 78.78972,37.34 26.72083,15.4127 34.62624,18.3353 39.88137,14.744 z m -242.8168,-159.3495 c 18.35001,-18.75323 31.10471,-40.33003 32.92483,-55.69813 1.1387,-9.6144 -0.41735,-12.044 -10.62216,-16.5853 -11.2017,-4.9849 -26.03829,-4.0699 -59.3853,3.6623 -15.59524,3.6161 -30.01216,7.3298 -32.03759,8.2527 -3.87876,1.7672 -16.78534,22.6998 -16.78534,27.2233 0,3.7978 5.00331,5.9419 13.81924,5.9221 8.39753,-0.019 15.56626,-1.9514 34.4546,-9.2881 10.29561,-3.9991 12.2729,-4.3731 11.34116,-2.1452 -4.62345,11.0553 -4.63004,10.7031 0.38126,20.3915 2.66248,5.14743 6.02635,13.47643 7.47529,18.50893 3.48179,12.093 6.40001,12.0543 18.43401,-0.2441 z M 617.5565,917.25187 c 25.10886,-27.9271 79.37373,-101.32584 81.99436,-110.90567 2.23762,-8.1798 6.39816,-58.93173 6.39816,-78.04753 0,-14.87324 -0.25187,-16.15471 -3.58042,-18.21652 -1.96923,-1.21979 -37.23636,-7.74968 -78.3714,-14.51087 -97.46182,-16.01933 -118.01505,-17.1369 -123.58997,-6.72006 -1.1161,2.08546 -1.64195,14.90901 -1.47553,35.98377 0.2735,34.63667 -1.30171,51.46512 -6.34606,67.79685 -7.50851,24.30972 -21.83758,25.99556 -43.86704,5.16102 -13.49465,-12.76268 -17.60415,-20.55944 -22.57526,-42.83095 -3.05635,-13.69294 -5.10703,-19.7847 -6.76786,-20.10455 -1.58768,-0.30575 -6.04828,6.0638 -13.36712,19.08766 -24.1323,42.94347 -37.3218,63.36536 -48.86439,75.65885 -5.4416,5.7957 -7.70616,9.454 -7.35594,11.8835 0.59824,4.1498 25.66271,25.0998 36.03877,30.1228 10.72082,5.1898 27.61131,3.4655 63.92332,-6.526 44.92933,-12.3625 53.34656,-13.8555 64.2988,-11.4045 11.86597,2.6555 24.41182,9.3622 38.27634,20.4615 15.50725,12.4145 34.85488,31.2585 43.29635,42.1693 9.11693,11.784 12.07241,11.9108 21.93489,0.9414 z M 478.15376,788.03926 c 2.92019,-6.12193 1.57345,-7.27876 -17.88465,-15.3625 -18.04404,-7.49627 -20.8038,-6.94379 -15.19185,3.04132 3.26705,5.8129 8.82475,10.66166 18.19889,15.87742 5.63432,3.13494 12.46468,1.50225 14.87761,-3.55624 z m 3.14915,-23.82351 c 1.80203,-9.45059 -2.22121,-12.65812 -25.36277,-20.22042 -18.35803,-5.99913 -18.9204,-5.98112 -18.9204,0.60625 0,7.08509 2.6175,9.12876 21.48252,16.77296 16.97235,6.87727 21.91365,7.493 22.80065,2.84121 z m 0.27316,-30.58782 c 0,-6.86128 -0.31374,-7.37406 -5.96736,-9.75321 -12.04119,-5.06712 -37.15354,-13.2394 -40.68297,-13.2394 -3.20697,0 -3.55677,0.64538 -2.98841,5.51378 0.35403,3.03258 1.63361,6.33534 2.84351,7.33946 2.50077,2.07545 41.76498,17.26757 44.80611,17.33639 1.3065,0.0296 1.98912,-2.44024 1.98912,-7.19702 z M 479.98478,705.156 c 0,-7.19298 -2.97069,-9.15943 -24.23787,-16.04433 -22.81276,-7.38526 -23.81512,-7.33301 -23.19473,1.209 l 0.48932,6.73741 19.89122,6.6455 c 25.46633,8.50811 27.05206,8.59324 27.05206,1.45242 z m -1.5913,-26.23297 c 0,-8.40773 -5.61555,-11.27058 -29.05601,-14.81299 -10.89003,-1.64575 -12.65305,-1.56031 -14.9371,0.72374 -4.36843,4.36843 -1.4723,6.83384 13.19493,11.23257 30.37136,9.10845 30.79818,9.14804 30.79818,2.85668 z m 235.45605,-6.37424 c 0.906,-1.69289 1.6463,-7.60058 1.64513,-13.12821 -0.002,-9.72739 -0.46571,-10.86803 -14.43334,-35.51098 -15.53169,-27.40233 -37.5259,-71.42161 -42.13985,-84.33876 -3.93453,-11.01508 -6.44452,-13.52603 -13.52076,-13.52603 -20.12454,0 -114.9733,41.42698 -172.52862,75.35509 -11.3513,6.69146 -21.19745,12.16627 -21.88034,12.16627 -0.68289,0 -1.24163,-1.1131 -1.24163,-2.47356 0,-4.23497 9.04457,-40.3868 15.00269,-59.96695 7.24596,-23.81227 7.25893,-25.08085 0.25641,-25.08085 -13.92142,0 -38.26444,11.34102 -40.25801,18.75555 -1.5791,5.87302 -1.57055,69.67635 0.0111,77.13217 1.99419,9.40501 5.63065,10.80126 32.48001,12.47096 53.87632,3.35045 120.29988,13.96582 212.10762,33.89763 37.61858,8.16713 42.1702,8.6016 44.50035,4.24767 z"
       id="path2845"
       inkscape:label="hero-obj" />
  </g>
</svg>
