<?xml version="1.0" encoding="UTF-8" standalone="no"?><!-- Generator: Gravit.io --><svg xmlns="http://www.w3.org/2000/svg" xmlns:xlink="http://www.w3.org/1999/xlink" style="isolation:isolate" viewBox="0 0 1200 1200" width="1200pt" height="1200pt"><defs><clipPath id="_clipPath_UhsXtTlbOaRw97uRZCzbflrmrO4LTal1"><rect width="1200" height="1200"/></clipPath></defs><g clip-path="url(#_clipPath_UhsXtTlbOaRw97uRZCzbflrmrO4LTal1)"><line x1="615" y1="88.5" x2="615" y2="1116.5" vector-effect="non-scaling-stroke" stroke-width="15" stroke="rgb(23,89,175)" stroke-linejoin="miter" stroke-linecap="square" stroke-miterlimit="3"/><line x1="651" y1="267.5" x2="851" y2="267.5" vector-effect="non-scaling-stroke" stroke-width="15" stroke="rgb(23,89,175)" stroke-linejoin="miter" stroke-linecap="square" stroke-miterlimit="3"/><path d="M 503.03 36.5 L 726.97 36.5 C 729.194 36.5 731 38.306 731 40.53 L 731 94.47 C 731 96.694 729.194 98.5 726.97 98.5 L 503.03 98.5 C 500.806 98.5 499 96.694 499 94.47 L 499 40.53 C 499 38.306 500.806 36.5 503.03 36.5 Z" style="stroke:none;fill:#143454;stroke-miterlimit:10;"/><path d="M 577.852 234.5 L 652.148 234.5 C 653.446 234.5 654.5 235.554 654.5 236.852 L 654.5 294.148 C 654.5 295.446 653.446 296.5 652.148 296.5 L 577.852 296.5 C 576.554 296.5 575.5 295.446 575.5 294.148 L 575.5 236.852 C 575.5 235.554 576.554 234.5 577.852 234.5 Z" style="stroke:none;fill:#143454;stroke-miterlimit:10;"/><path d="M 503.03 1102.5 L 726.97 1102.5 C 729.194 1102.5 731 1104.306 731 1106.53 L 731 1160.47 C 731 1162.694 729.194 1164.5 726.97 1164.5 L 503.03 1164.5 C 500.806 1164.5 499 1162.694 499 1160.47 L 499 1106.53 C 499 1104.306 500.806 1102.5 503.03 1102.5 Z" style="stroke:none;fill:#143454;stroke-miterlimit:10;"/><g clip-path="url(#_clipPath_WjvQ8y98Aj5bRboYvI19kWyORwMlVqWb)"><text transform="matrix(1,0,0,1,555.5,82.9)" style="font-family:'Montserrat';font-weight:400;font-size:50px;font-style:normal;fill:#ffffff;stroke:none;">start</text></g><defs><clipPath id="_clipPath_WjvQ8y98Aj5bRboYvI19kWyORwMlVqWb"><rect x="0" y="0" width="119" height="60.95" transform="matrix(1,0,0,1,555.5,34.5)"/></clipPath></defs><g clip-path="url(#_clipPath_4uP3oRO8b5wqy1BhmmT2ojkg6AfJmEtK)"><text transform="matrix(1,0,0,1,756,83.633)" style="font-family:'Montserrat';font-weight:400;font-size:45px;font-style:normal;fill:#000000;stroke:none;">2016</text></g><defs><clipPath id="_clipPath_4uP3oRO8b5wqy1BhmmT2ojkg6AfJmEtK"><rect x="0" y="0" width="101" height="54.855" transform="matrix(1,0,0,1,756,40.073)"/></clipPath></defs><g clip-path="url(#_clipPath_hE9ns6fuE1QDCXtgiU81JkjjqLXA8PF1)"><text transform="matrix(1,0,0,1,450,282.633)" style="font-family:'Montserrat';font-weight:400;font-size:45px;font-style:normal;fill:#000000;stroke:none;">2017</text></g><defs><clipPath id="_clipPath_hE9ns6fuE1QDCXtgiU81JkjjqLXA8PF1"><rect x="0" y="0" width="100" height="54.855" transform="matrix(1,0,0,1,450,239.073)"/></clipPath></defs><g clip-path="url(#_clipPath_O7AWHMKQnZAlQIMGatBLrga7BFn3f777)"><text transform="matrix(1,0,0,1,756,1149.633)" style="font-family:'Montserrat';font-weight:400;font-size:45px;font-style:normal;fill:#000000;stroke:none;">2021</text></g><defs><clipPath id="_clipPath_O7AWHMKQnZAlQIMGatBLrga7BFn3f777"><rect x="0" y="0" width="99" height="54.855" transform="matrix(1,0,0,1,756,1106.073)"/></clipPath></defs><g clip-path="url(#_clipPath_K4KGZLVJ3QAU9Y02R66tYyrSj0GIKKcI)"><text transform="matrix(1,0,0,1,403.5,175.732)" style="font-family:'Montserrat';font-weight:400;font-size:24px;font-style:normal;fill:#000000;stroke:none;">Погружениее</text></g><defs><clipPath id="_clipPath_K4KGZLVJ3QAU9Y02R66tYyrSj0GIKKcI"><rect x="0" y="0" width="179" height="29.256" transform="matrix(1,0,0,1,398.5,152.5)"/></clipPath></defs><g clip-path="url(#_clipPath_DmNfurcDvMB29LjZn0IZiLrgHW0WLwzG)"><text transform="matrix(1,0,0,1,652.25,556.604)" style="font-family:'Montserrat';font-weight:400;font-size:24px;font-style:normal;fill:#000000;stroke:none;">Написание</text><text transform="matrix(1,0,0,1,652.25,585.86)" style="font-family:'Montserrat';font-weight:400;font-size:24px;font-style:normal;fill:#000000;stroke:none;"> проектов</text></g><defs><clipPath id="_clipPath_DmNfurcDvMB29LjZn0IZiLrgHW0WLwzG"><rect x="0" y="0" width="162.5" height="66.628" transform="matrix(1,0,0,1,652.25,533.372)"/></clipPath></defs><g clip-path="url(#_clipPath_P90z4g5BTPo9czdf9x6MhDLLO7LUpLGZ)"><text transform="matrix(1,0,0,1,884,244.848)" style="font-family:'Montserrat';font-weight:400;font-size:24px;font-style:normal;fill:#000000;stroke:none;">Домашнее </text><text transform="matrix(1,0,0,1,884,274.104)" style="font-family:'Montserrat';font-weight:400;font-size:24px;font-style:normal;fill:#000000;stroke:none;">обучение </text><text transform="matrix(1,0,0,1,884,303.36)" style="font-family:'Montserrat';font-weight:400;font-size:24px;font-style:normal;fill:#000000;stroke:none;">кодингу</text></g><defs><clipPath id="_clipPath_P90z4g5BTPo9czdf9x6MhDLLO7LUpLGZ"><rect x="0" y="0" width="143" height="87.768" transform="matrix(1,0,0,1,884,221.616)"/></clipPath></defs><line x1="651" y1="711.5" x2="851" y2="711.5" vector-effect="non-scaling-stroke" stroke-width="15" stroke="rgb(23,89,175)" stroke-linejoin="miter" stroke-linecap="square" stroke-miterlimit="3"/><path d="M 577.852 678.5 L 652.148 678.5 C 653.446 678.5 654.5 679.554 654.5 680.852 L 654.5 738.148 C 654.5 739.446 653.446 740.5 652.148 740.5 L 577.852 740.5 C 576.554 740.5 575.5 739.446 575.5 738.148 L 575.5 680.852 C 575.5 679.554 576.554 678.5 577.852 678.5 Z" style="stroke:none;fill:#143454;stroke-miterlimit:10;"/><g clip-path="url(#_clipPath_k0NRs8Ma5yUxEEHwVG8gLa9SpAxhJ1Ie)"><text transform="matrix(1,0,0,1,448,726.633)" style="font-family:'Montserrat';font-weight:400;font-size:45px;font-style:normal;fill:#000000;stroke:none;">2019</text></g><defs><clipPath id="_clipPath_k0NRs8Ma5yUxEEHwVG8gLa9SpAxhJ1Ie"><rect x="0" y="0" width="101" height="54.855" transform="matrix(1,0,0,1,448,683.073)"/></clipPath></defs><g clip-path="url(#_clipPath_fAD2njYioAHjY10wEjr9FJe5kpVec0Bd)"><text transform="matrix(1,0,0,1,884,702.732)" style="font-family:'Montserrat';font-weight:400;font-size:24px;font-style:normal;fill:#000000;stroke:none;">Работа в</text><text transform="matrix(1,0,0,1,884,731.988)" style="font-family:'Montserrat';font-weight:400;font-size:24px;font-style:normal;fill:#000000;stroke:none;">ООО "ЦИТ"</text></g><defs><clipPath id="_clipPath_fAD2njYioAHjY10wEjr9FJe5kpVec0Bd"><rect x="0" y="0" width="143" height="58.512" transform="matrix(1,0,0,1,884,679.5)"/></clipPath></defs><line x1="381" y1="404.5" x2="581" y2="404.5" vector-effect="non-scaling-stroke" stroke-width="15" stroke="rgb(23,89,175)" stroke-linejoin="miter" stroke-linecap="square" stroke-miterlimit="3"/><path d="M 577.852 373.5 L 652.148 373.5 C 653.446 373.5 654.5 374.554 654.5 375.852 L 654.5 433.148 C 654.5 434.446 653.446 435.5 652.148 435.5 L 577.852 435.5 C 576.554 435.5 575.5 434.446 575.5 433.148 L 575.5 375.852 C 575.5 374.554 576.554 373.5 577.852 373.5 Z" style="stroke:none;fill:#143454;stroke-miterlimit:10;"/><g clip-path="url(#_clipPath_CAFnCnq51aHpyXeNQR6tqypm5I4N8qu0)"><text transform="matrix(1,0,0,1,685.5,421.205)" style="font-family:'Montserrat';font-weight:400;font-size:45px;font-style:normal;fill:#000000;stroke:none;">2017</text></g><defs><clipPath id="_clipPath_CAFnCnq51aHpyXeNQR6tqypm5I4N8qu0"><rect x="0" y="0" width="100" height="54.855" transform="matrix(1,0,0,1,685.5,377.645)"/></clipPath></defs><g clip-path="url(#_clipPath_GKw2GTXdy7ZFk3v7klr0yRqiBr7CgeNQ)"><text transform="matrix(1,0,0,1,118.5,374.848)" style="font-family:'Montserrat';font-weight:400;font-size:24px;font-style:normal;fill:#000000;stroke:none;">Самостоятельное </text><text transform="matrix(1,0,0,1,198.5,404.104)" style="font-family:'Montserrat';font-weight:400;font-size:24px;font-style:normal;fill:#000000;stroke:none;">написание </text><text transform="matrix(1,0,0,1,226.5,433.36)" style="font-family:'Montserrat';font-weight:400;font-size:24px;font-style:normal;fill:#000000;stroke:none;">тестовых</text><text transform="matrix(1,0,0,1,221.5,462.616)" style="font-family:'Montserrat';font-weight:400;font-size:24px;font-style:normal;fill:#000000;stroke:none;">проектов</text></g><defs><clipPath id="_clipPath_GKw2GTXdy7ZFk3v7klr0yRqiBr7CgeNQ"><rect x="0" y="0" width="239.5" height="117.024" transform="matrix(1,0,0,1,100,351.616)"/></clipPath></defs><g clip-path="url(#_clipPath_3QKMAUDopsC63H0xYivtf3GnZfecngcb)"><text transform="matrix(1,0,0,1,351.5,869.232)" style="font-family:'Montserrat';font-weight:400;font-size:24px;font-style:normal;fill:#000000;stroke:none;">Самостоятельное </text><text transform="matrix(1,0,0,1,411.5,898.488)" style="font-family:'Montserrat';font-weight:400;font-size:24px;font-style:normal;fill:#000000;stroke:none;">углублённое</text><text transform="matrix(1,0,0,1,345.924,927.744)" style="font-family:'Montserrat';font-weight:400;font-size:24px;font-style:normal;fill:#000000;stroke:none;">изучение языка и </text><text transform="matrix(1,0,0,1,395.5,957)" style="font-family:'Montserrat';font-weight:400;font-size:24px;font-style:normal;fill:#000000;stroke:none;">фоеймворков</text></g><defs><clipPath id="_clipPath_3QKMAUDopsC63H0xYivtf3GnZfecngcb"><rect x="0" y="0" width="239.5" height="117.024" transform="matrix(1,0,0,1,333,846)"/></clipPath></defs><g clip-path="url(#_clipPath_i9RyjYzIth9GZDbX7GxszGoSyLKJTBxJ)"><text transform="matrix(1,0,0,1,560,1147.95)" style="font-family:'Montserrat';font-weight:400;font-size:50px;font-style:normal;fill:#ffffff;stroke:none;">now</text></g><defs><clipPath id="_clipPath_i9RyjYzIth9GZDbX7GxszGoSyLKJTBxJ"><rect x="0" y="0" width="110" height="60.95" transform="matrix(1,0,0,1,560,1099.55)"/></clipPath></defs><circle vector-effect="non-scaling-stroke" cx="615" cy="265.5" r="12.5" fill="rgb(255,255,255)"/><circle vector-effect="non-scaling-stroke" cx="615" cy="403.4999999999997" r="12.5" fill="rgb(255,255,255)"/><circle vector-effect="non-scaling-stroke" cx="615" cy="708.4999999999997" r="12.5" fill="rgb(255,255,255)"/></g></svg>